<svg width="1438" height="416" viewBox="0 0 1438 416" fill="none" xmlns="http://www.w3.org/2000/svg">
<path d="M997.397 93.8425L1.07685e-05 229.284L1.05996e-05 227.349L1008.9 82.2332L997.397 93.8425Z" fill="#EEEEEE"/>
<path d="M950.806 140.764L1.07685e-05 236.541L1.05996e-05 234.606L961.734 130.123L950.806 140.764Z" fill="#EEEEEE"/>
<path d="M907.666 184.295L1.07685e-05 243.793L1.05996e-05 241.858L918.019 174.137L907.666 184.295Z" fill="#EEEEEE"/>
<path d="M877.18 214.77L867.977 223.961L54.644 249.115L37.388 249.598L1.07685e-05 251.05L1.05996e-05 249.115L877.18 214.77Z" fill="#EEEEEE"/>
<path d="M129.42 256.375L185.79 255.891L276.671 255.891L333.041 255.407L350.872 254.923L407.242 254.923L424.498 254.44H498.123L839.217 252.989L831.164 261.695L496.398 260.244L478.566 260.244L422.772 259.761H332.466L276.096 259.277H259.415L203.046 258.793H112.164L56.3696 258.31L1.04729e-05 258.31L1.03462e-05 256.858L39.1136 256.375H129.42Z" fill="#EEEEEE"/>
<path d="M57.52 265.564L113.314 267.499L185.79 269.434H186.365L202.47 270.401L258.265 271.852L274.946 272.336L329.59 274.271H346.846L400.914 276.206L417.02 276.69L471.089 278.625L487.77 279.108L804.13 288.783L796.077 296.522L485.469 284.429L469.363 283.945L415.87 281.527L399.189 281.043L345.695 279.108L329.014 278.625L274.37 276.206L257.69 275.722L202.47 273.304L186.365 272.336L131.146 270.401L113.314 269.918L58.0952 267.983H57.52L40.8392 267.015L8.0236e-06 265.08L7.93914e-06 264.113L40.264 265.08L57.52 265.564Z" fill="#EEEEEE"/>
<path d="M59.2456 275.235L114.465 278.621L131.721 280.072L186.365 283.458L202.47 284.426L256.539 288.296L273.22 288.779L325.563 292.649L342.244 293.617L394.587 297.003L410.118 297.97L461.886 301.356L477.991 302.807L770.768 322.156L763.866 329.412L475.69 307.645L460.16 306.677L408.967 302.807L392.862 301.84L341.669 297.97L324.988 297.003L272.645 293.133L255.964 291.682L202.47 287.812L186.365 286.361L131.721 282.491L114.465 281.04L59.8208 277.17L43.14 275.719L5.82767e-06 272.817L5.70098e-06 271.366L42.5648 274.268L59.2456 275.235Z" fill="#EEEEEE"/>
<path d="M61.5464 284.91L115.615 290.231L132.871 291.682L186.365 297.003L202.47 298.938L255.389 304.259L270.919 305.71L322.112 311.031L338.218 312.482L388.26 317.803L453.258 324.091L467.638 325.542L740.282 352.631L733.38 359.887L465.912 330.863L450.957 328.928L402.065 323.608L386.534 322.156L337.067 316.835L321.537 314.901L270.344 309.58L254.814 307.645L202.47 302.324L186.365 300.389L132.871 294.584L116.19 292.649L62.1216 286.845L44.8656 284.91L3.80065e-06 280.073L3.63174e-06 278.138L44.8656 282.975L61.5464 284.91Z" fill="#EEEEEE"/>
<path d="M553.918 404.391L542.414 402.456L540.688 407.777L504.451 400.037L505.601 395.2L494.097 392.781L492.371 397.618L456.134 389.879L456.709 385.525L445.78 383.107L444.63 387.944L407.242 379.721L407.817 375.851L396.888 373.916L396.313 377.786L358.35 369.563L358.925 366.177L346.846 364.242V367.144L309.458 359.405V356.502L297.379 354.084V356.986L277.822 352.632L278.972 347.795L625.243 416H599.934L601.084 414.065L590.155 411.646L588.43 416H579.802L551.617 410.195L553.918 404.391Z" fill="#EEEEEE"/>
<path d="M235.832 343.927L236.983 339.573L269.194 345.862L268.044 350.699L235.832 343.927Z" fill="#EEEEEE"/>
<path d="M8.05277 296.518V294.1L44.8656 301.355L45.4408 304.258L8.05277 296.518Z" fill="#EEEEEE"/>
<path d="M193.267 335.217L193.842 330.864L227.204 337.152L226.054 341.989L193.267 335.217Z" fill="#EEEEEE"/>
<path d="M148.977 326.029V322.159L183.489 328.931L182.913 332.801L148.977 326.029Z" fill="#EEEEEE"/>
<path d="M56.9451 306.68V303.777L92.6075 311.033V313.936L56.9451 306.68Z" fill="#EEEEEE"/>
<path d="M102.96 316.352L103.536 312.966L138.623 320.221V323.608L102.96 316.352Z" fill="#EEEEEE"/>
<path d="M8.0528 296.521L24.7336 416H15.5304L1.98479e-06 315.386L0 292.651L8.0528 294.102L8.0528 296.521Z" fill="#EEEEEE"/>
<path d="M44.8656 301.358L56.9451 303.777V306.68L63.8472 416L54.644 416L45.4408 304.26L44.8656 301.358Z" fill="#EEEEEE"/>
<path d="M92.6075 311.033L103.536 312.967L102.961 316.353L102.386 416H93.7576L92.6075 313.936V311.033Z" fill="#EEEEEE"/>
<path d="M138.623 320.223L148.977 322.158V326.028L142.074 416H132.871L138.623 323.609V320.223Z" fill="#EEEEEE"/>
<path d="M183.489 328.93L193.842 330.865L193.267 335.219L181.188 416H171.409L182.913 332.8L183.489 328.93Z" fill="#EEEEEE"/>
<path d="M227.204 337.153L236.983 339.572L235.832 343.925L228.93 374.884L226.629 373.916L224.903 384.074L226.629 384.558L219.727 416H210.523L226.054 341.991L227.204 337.153Z" fill="#EEEEEE"/>
<path d="M262.866 397.618L264.592 398.102L258.84 416H249.637L255.964 395.2L262.866 397.618Z" fill="#EEEEEE"/>
<path d="M266.893 388.909L262.291 386.974L258.265 385.523L268.043 350.695L269.194 345.858L278.972 347.793L277.822 352.63L266.893 388.909Z" fill="#EEEEEE"/>
<path d="M309.458 414.065V404.391L341.094 416L315.785 416L309.458 414.065Z" fill="#EEEEEE"/>
<path d="M262.291 386.977L266.893 388.912L298.529 400.521V410.195L264.592 398.102L262.866 397.618L262.291 386.977Z" fill="#EEEEEE"/>
<path d="M224.903 384.073L226.629 373.915L228.93 374.882L226.629 384.557L224.903 384.073Z" fill="#EEEEEE"/>
<path d="M601.084 414.065L599.934 416H588.43L590.155 411.646L601.084 414.065Z" fill="#EEEEEE"/>
<path d="M540.688 407.777L542.414 402.456L553.918 404.391L551.617 410.195L551.042 411.163L549.316 416H537.812L540.113 408.744L540.688 407.777Z" fill="#EEEEEE"/>
<path d="M492.371 397.618L494.097 392.781L505.601 395.2L504.451 400.037L503.875 401.005L499.849 416H487.769L492.371 398.586L492.371 397.618Z" fill="#EEEEEE"/>
<path d="M444.63 387.944L445.78 383.107L456.709 385.525L456.134 389.879L456.134 391.33L450.382 416H439.453L444.63 388.912L444.63 387.944Z" fill="#EEEEEE"/>
<path d="M396.313 377.786L396.888 373.916L407.817 375.851L407.242 379.721L407.241 381.172L402.64 416H391.711L396.313 378.753L396.313 377.786Z" fill="#EEEEEE"/>
<path d="M346.846 367.144V364.242L358.925 366.177L358.35 369.563L358.35 370.53L355.474 416H345.12L346.846 368.112L346.846 367.144Z" fill="#EEEEEE"/>
<path d="M298.529 400.519L297.378 357.952V354.082L309.458 356.5V414.063L298.529 410.193V400.519Z" fill="#EEEEEE"/>
<path d="M262.291 386.977L262.866 397.618L255.964 395.2L258.265 385.526L262.291 386.977Z" fill="#EEEEEE"/>
<path d="M740.283 352.632L763.866 329.414L770.768 322.158L796.077 296.521L804.13 288.781L831.164 261.693L839.217 252.986L867.977 223.963L907.666 184.298L918.019 174.139L950.806 140.763L961.735 130.121L997.397 93.8425L1008.9 82.2332L1091.15 5.03567e-08L1091.73 0L1012.93 81.7488L1001.42 93.8419L966.336 129.637L956.558 140.279L923.771 173.656L913.993 183.814L884.083 214.772L875.455 223.963L847.27 252.986L838.642 261.693L812.758 288.781L804.705 297.005L779.971 322.642L750.061 354.084L742.583 360.856L689.665 416H677.011L733.38 359.888L740.283 352.632Z" fill="#EEEEEE"/>
<path d="M780.547 356.986L802.404 332.316L809.307 324.093L832.89 297.972L839.792 289.749L864.526 261.693L872.003 252.986L898.463 223.479L907.091 213.805L934.7 182.363L943.328 172.205L973.239 138.344L982.442 127.702L1014.65 91.907L1025.01 80.2977L1094.61 1.45123H1095.18L1025.58 83.2L1018.68 90.9396L987.619 127.219L978.415 137.86L941.027 181.879L913.993 213.321L905.365 222.995L880.056 252.986L872.003 261.693L847.845 290.232L840.943 297.972L818.51 325.06L811.607 332.8L789.75 357.953L783.423 365.209L740.283 416H728.203L774.219 364.242L780.547 356.986Z" fill="#EEEEEE"/>
<path d="M1097.48 2.90235H1099.21L1098.63 3.86977L1092.3 12.093L786.874 416H775.945L1091.15 11.1256L1097.48 2.90235Z" fill="#EEEEEE"/>
<path d="M1050.32 79.3303L1045.14 88.521L1046.86 89.0047H1046.29L831.739 416H821.386L1050.32 79.3303Z" fill="#EEEEEE"/>
<path d="M1050.31 79.3281L1069.87 50.7886L1075.62 42.0816L1095.18 14.0257L1100.93 5.80253L1101.51 4.35134L1102.66 4.83507L1102.08 5.80253L1095.76 14.5095L1076.77 43.049L1071.6 51.756L1052.62 80.7793L1052.04 81.263L1052.62 80.2955L1050.31 79.3281Z" fill="#EEEEEE"/>
<path d="M924.346 313.451L941.602 283.944L947.354 274.753L964.035 245.73L969.787 236.539L987.043 207.516L992.22 198.326L1009.48 169.302L1014.65 160.112L1031.91 131.088L1037.09 121.898L1054.34 92.8744L1059.52 84.1674L1076.77 54.6605L1081.38 45.9535L1099.21 16.9303L1103.81 8.22327L1105.53 5.8047L1106.11 6.28839L1104.96 8.22327L1104.38 7.73959L1099.21 16.9303H1099.78L1083.1 46.4372L1081.95 45.9535L1076.77 54.6605L1077.92 55.6279L1061.24 85.1349L1059.52 84.1674L1054.34 92.8744L1056.07 93.8419L1039.96 123.349L1037.09 121.898L1031.91 131.088L1034.21 132.54L1017.53 161.563L1014.65 160.112L1009.48 169.302L1012.93 170.27H1012.35L996.246 199.777L992.22 198.326L987.043 207.516L991.069 208.484V208.967L974.388 237.991L969.787 236.539L964.035 245.73L969.212 247.181L952.531 276.205L947.354 274.753L941.602 283.46L947.354 284.912L931.248 314.419L924.921 312.967L919.169 321.674L926.072 323.125L873.153 416H863.375L919.169 321.674L924.346 313.451Z" fill="#EEEEEE"/>
<path d="M953.106 318.288L967.486 289.749L971.513 280.558L986.468 252.019L991.07 253.47L977.84 282.009H977.265L972.088 281.042L967.486 289.749L973.238 290.716L959.434 319.739L953.106 318.288L949.08 326.995L955.407 328.446L912.842 416H904.214L948.505 326.995L953.106 318.288Z" fill="#EEEEEE"/>
<path d="M1007.17 210.418L1009.48 204.614L1025.01 175.107L1028.46 176.558H1027.88L1014.08 206.065L1010.05 204.614L1007.17 210.418Z" fill="#EEEEEE"/>
<path d="M991.069 242.826L1005.45 213.803L1009.48 215.254L995.671 244.277L991.069 242.826Z" fill="#EEEEEE"/>
<path d="M1029.03 166.4L1043.99 136.893L1048.59 127.218L1062.97 97.7114L1068.15 88.5207L1083.1 58.53L1087.7 49.3393L1102.66 19.3486L1107.84 10.6416L1108.99 7.25557L1109.56 7.25557L1108.41 10.6416H1107.84L1103.23 19.3486L1103.81 19.8323L1088.85 50.3067L1087.7 49.3393L1083.1 59.0137L1084.25 59.4974L1069.87 89.9718L1068.15 88.5207L1063.54 98.1951L1065.85 98.6788L1065.27 99.1625L1051.47 128.669L1048.59 127.702L1043.99 136.893L1046.29 137.86L1031.91 167.851L1029.03 166.4Z" fill="#EEEEEE"/>
<path d="M980.141 323.609L992.22 295.553V295.07L997.972 296.521L986.468 324.577L980.716 323.609L977.264 332.316L983.016 333.284L950.23 416H941.602L976.689 332.316L980.141 323.609Z" fill="#EEEEEE"/>
<path d="M992.22 295.07L996.246 286.363L1007.75 257.823L1011.78 249.116L1023.86 220.093L1027.88 211.386L1039.96 181.395L1043.99 172.688L1056.07 142.698L1060.09 133.023L1072.75 103.032L1076.77 93.8418L1089.43 62.8836L1094.03 53.693L1106.68 22.2511L1107.84 22.7348L1095.18 54.1767L1094.03 53.693L1090 62.8836L1091.15 63.8511L1078.5 94.8092L1077.35 93.8418L1073.32 103.032L1075.05 104V104.484L1062.97 134.474L1060.67 133.023L1056.64 142.698L1059.52 144.149L1047.44 173.656L1043.99 172.688L1039.96 181.395L1043.99 182.846H1043.41L1031.91 212.353L1027.88 211.386L1023.86 220.093L1028.46 221.544H1027.88L1016.38 250.567L1011.78 249.116L1007.75 257.823L1012.35 259.274L1001.42 287.814L996.246 286.846L992.22 295.07Z" fill="#EEEEEE"/>
<path d="M1107.26 21.7663L1112.44 8.7058H1113.01L1111.86 13.0593L1111.29 12.5756L1107.26 21.7663Z" fill="#EEEEEE"/>
<path d="M1085.98 98.6804L1096.33 66.7548L1100.36 57.0804L1111.29 25.1548L1114.74 15.4804L1116.46 10.1594V10.6432L1115.31 15.4804L1114.74 14.9967L1111.29 25.1548L1111.86 25.6385L1100.93 58.0478L1100.36 57.0804L1096.91 66.7548L1098.06 67.7222L1088.28 100.132L1085.98 98.6804Z" fill="#EEEEEE"/>
<path d="M1019.83 292.165L1029.03 264.109L1032.48 254.919L1042.26 225.895L1045.71 217.188L1055.49 187.681L1058.37 178.491L1068.72 148.5L1072.17 138.826L1082.53 108.351L1085.4 100.128L1083.1 108.351L1084.83 109.319L1074.47 140.277L1072.17 138.826L1068.72 148.5L1071.6 149.468V149.951L1061.82 179.942L1058.94 178.491L1055.49 187.681L1058.94 189.133L1049.74 218.64L1045.71 217.188L1042.26 226.379L1046.29 227.347V227.83L1037.09 256.37L1032.48 254.919L1029.61 264.109L1033.63 265.561L1025.01 293.616L1019.83 292.165Z" fill="#EEEEEE"/>
<path d="M1007.18 328.93L1016.95 300.874L1022.13 301.842L1013.5 329.898L1007.18 328.93L1004.3 337.153L1010.63 338.121L985.318 416H977.265L1004.3 337.153L1007.18 328.93Z" fill="#EEEEEE"/>
<path d="M1084.25 155.76L1076.77 185.751L1076.2 186.235L1073.32 184.3L1081.38 154.309L1084.25 155.76Z" fill="#EEEEEE"/>
<path d="M1074.47 194.941L1067 224.932L1062.97 223.481L1071.02 193.974L1074.47 194.941Z" fill="#EEEEEE"/>
<path d="M1115.89 28.5368H1116.46L1107.84 61.9135V62.3973L1106.69 61.4298V60.9461L1115.31 28.0531L1115.89 28.5368Z" fill="#EEEEEE"/>
<path d="M1094.61 114.644L1086.55 146.086L1084.25 144.634L1092.31 113.193L1094.61 114.644Z" fill="#EEEEEE"/>
<path d="M1046.29 307.644L1039.39 334.732L1033.06 333.765L1040.54 306.193L1046.29 307.644Z" fill="#EEEEEE"/>
<path d="M1064.7 234.119L1057.22 262.175L1052.62 261.207L1060.67 232.184L1064.7 234.119Z" fill="#EEEEEE"/>
<path d="M1105.53 72.0751L1096.91 104.484L1095.18 104.001L1093.45 108.354L1095.18 103.517L1103.81 71.1077L1105.53 72.0751Z" fill="#EEEEEE"/>
<path d="M1030.76 341.991L1037.09 342.958L1033.06 359.888L1029.61 358.437L1027.31 368.595L1030.18 369.563L1022.71 401.972L1018.68 400.521L1016.38 410.195L1019.83 411.163L1018.68 416H1011.2L1030.76 341.991Z" fill="#EEEEEE"/>
<path d="M1055.49 271.37L1048.01 298.942L1042.84 297.974L1050.32 269.919L1055.49 271.37Z" fill="#EEEEEE"/>
<path d="M1118.19 17.8986L1119.91 11.6102L1120.49 12.0939L1118.76 17.8986H1118.19Z" fill="#EEEEEE"/>
<path d="M1115.89 28.5412L1115.31 28.0575L1115.89 26.6063L1118.19 17.8986H1118.76L1438 242.346V248.634L1116.46 28.5412H1115.89Z" fill="#EEEEEE"/>
<path d="M1114.74 14.9977L1115.31 15.4815L1114.74 16.9326L1111.86 25.6397L1111.29 25.156L1114.74 14.9977Z" fill="#EEEEEE"/>
<path d="M1106.68 22.2511L1107.26 21.7663L1111.29 12.5756L1111.86 13.0593L1107.84 22.7348L1106.68 22.2511Z" fill="#EEEEEE"/>
<path d="M1107.83 10.6445H1108.41L1107.26 12.0957L1103.81 19.8353L1103.23 19.3515L1107.83 10.6445Z" fill="#EEEEEE"/>
<path d="M1104.38 7.73959L1104.96 8.22327L1099.78 17.4144L1099.78 16.9303H1099.21L1104.38 7.73959Z" fill="#EEEEEE"/>
<path d="M1105.53 72.0719L1103.81 71.1045L1106.11 62.8812L1106.69 61.4298L1107.84 62.3973L1438 268.462V274.267L1105.53 72.0719Z" fill="#EEEEEE"/>
<path d="M1100.36 57.0804L1100.93 58.0478L1101.51 58.0486L1098.06 67.7222L1096.91 66.7548L1100.36 57.0804Z" fill="#EEEEEE"/>
<path d="M1094.03 53.6917L1095.18 54.1754L1091.15 63.8498L1090 62.8823L1094.03 53.6917Z" fill="#EEEEEE"/>
<path d="M1087.7 49.3393L1088.85 50.3067L1084.25 59.4974L1083.1 59.0137L1087.7 49.3393Z" fill="#EEEEEE"/>
<path d="M1081.95 45.9556L1083.1 46.4393L1077.92 55.6301L1076.77 54.6626L1081.95 45.9556Z" fill="#EEEEEE"/>
<path d="M1094.61 114.644L1092.31 113.193L1093.46 108.356L1095.18 104.003L1096.91 104.486L1438 292.17V297.975L1094.61 114.644Z" fill="#EEEEEE"/>
<path d="M1085.4 100.132L1085.98 98.6804L1088.28 100.132L1087.13 103.034L1084.83 109.322L1083.1 108.355L1085.4 100.132Z" fill="#EEEEEE"/>
<path d="M1077.35 93.844L1078.5 94.8114H1079.08L1075.05 104.002L1073.32 103.035L1077.35 93.844Z" fill="#EEEEEE"/>
<path d="M1068.15 88.5186L1069.87 89.9698H1070.45L1065.85 99.1604V98.6767L1063.55 98.193L1068.15 88.5186Z" fill="#EEEEEE"/>
<path d="M1059.52 84.1659L1061.24 85.1333L1056.07 93.8403L1054.34 92.8728L1059.52 84.1659Z" fill="#EEEEEE"/>
<path d="M1050.32 79.3303L1052.62 80.2977L1052.04 81.2651L1046.86 89.4883V89.0047L1045.14 88.521L1050.32 79.3303Z" fill="#EEEEEE"/>
<path d="M1084.25 155.759L1081.38 154.308L1084.25 144.633L1086.55 146.085L1438 314.903V320.224L1084.25 155.759Z" fill="#EEEEEE"/>
<path d="M1072.17 138.827L1074.47 140.278H1075.05L1071.6 149.469L1068.72 148.502L1072.17 138.827Z" fill="#EEEEEE"/>
<path d="M1060.67 133.023L1062.97 134.474L1059.52 144.149L1056.64 142.698L1060.67 133.023Z" fill="#EEEEEE"/>
<path d="M1048.59 127.702L1051.47 128.669L1046.86 138.345L1046.29 137.86L1043.99 136.893L1048.59 127.702Z" fill="#EEEEEE"/>
<path d="M1037.09 121.898L1039.96 123.349L1034.21 132.54L1031.91 131.088L1037.09 121.898Z" fill="#EEEEEE"/>
<path d="M1074.47 194.937L1071.02 193.97H1070.45L1072.17 188.649L1073.32 184.295L1076.2 186.23L1438 336.184V341.021L1074.47 194.937Z" fill="#EEEEEE"/>
<path d="M1058.94 178.496L1061.82 179.947L1058.94 189.137L1055.49 187.686L1058.94 178.496Z" fill="#EEEEEE"/>
<path d="M1043.99 172.691L1047.44 173.658L1043.99 182.849L1039.96 181.398L1043.99 172.691Z" fill="#EEEEEE"/>
<path d="M1026.73 171.239L1029.03 166.402L1031.91 167.853H1032.48L1028.46 176.56L1025.01 175.109L1026.73 171.239Z" fill="#EEEEEE"/>
<path d="M1014.65 160.113L1017.53 161.565H1018.1L1012.93 170.272L1009.48 169.304L1014.65 160.113Z" fill="#EEEEEE"/>
<path d="M992.22 198.324L996.247 199.775L991.07 208.482L987.043 207.514L992.22 198.324Z" fill="#EEEEEE"/>
<path d="M1005.45 213.803L1007.18 210.417L1010.05 204.613L1014.08 206.064L1009.48 215.254L1005.45 213.803Z" fill="#EEEEEE"/>
<path d="M1027.88 211.386L1031.91 212.353L1028.46 221.544L1023.86 220.093L1027.88 211.386Z" fill="#EEEEEE"/>
<path d="M1045.71 217.189L1049.74 218.641L1046.29 227.348L1042.26 226.38L1045.71 217.189Z" fill="#EEEEEE"/>
<path d="M1064.7 234.121L1060.67 232.186L1061.24 230.735L1062.97 223.479L1067 224.93L1438 356.502V361.339L1064.7 234.121Z" fill="#EEEEEE"/>
<path d="M969.787 236.539L974.388 237.991L969.212 247.181L964.035 245.73L969.787 236.539Z" fill="#EEEEEE"/>
<path d="M986.468 252.019L986.468 251.052L991.069 242.828L995.671 244.28L991.644 253.47L991.07 253.47L986.468 252.019Z" fill="#EEEEEE"/>
<path d="M1011.78 249.116L1016.38 250.567L1016.95 250.568L1012.93 259.275L1012.35 259.274L1007.75 257.823L1011.78 249.116Z" fill="#EEEEEE"/>
<path d="M1032.48 254.921L1037.09 256.373L1034.21 265.563H1033.63L1029.61 264.112L1032.48 254.921Z" fill="#EEEEEE"/>
<path d="M1055.49 271.367L1050.31 269.916L1052.04 262.66L1052.62 261.209L1057.22 262.177L1438 375.367V379.721L1055.49 271.367Z" fill="#EEEEEE"/>
<path d="M947.354 274.755L952.531 276.206H953.106L947.929 284.913H947.354L941.602 283.462L947.354 274.755Z" fill="#EEEEEE"/>
<path d="M972.088 281.043L977.265 282.011H977.84L973.239 290.718L967.487 289.75L972.088 281.043Z" fill="#EEEEEE"/>
<path d="M992.22 295.071L996.246 286.848L1001.42 287.815L997.972 296.522L992.22 295.071Z" fill="#EEEEEE"/>
<path d="M1016.95 300.875L1017.53 298.94L1019.83 292.168L1025.01 293.62L1024.43 295.554L1022.13 302.327V301.843L1016.95 300.875Z" fill="#EEEEEE"/>
<path d="M1191.81 340.539L1180.31 337.637V338.121L1142.35 329.414L1142.92 328.446L1131.42 326.027V326.995L1093.45 318.288L1094.03 316.353L1082.53 313.451L1081.95 315.869L1046.29 307.646L1040.54 306.195L1041.11 303.776L1042.84 297.972L1048.01 298.939L1438 393.265V397.618L1191.81 341.023V340.539Z" fill="#EEEEEE"/>
<path d="M924.921 312.965L931.249 314.416L930.098 316.835L926.072 323.123L919.169 321.672L924.921 312.965Z" fill="#EEEEEE"/>
<path d="M953.106 318.285L959.434 319.737L958.283 321.672L955.407 328.444L949.08 326.992L953.106 318.285Z" fill="#EEEEEE"/>
<path d="M980.716 323.611L986.468 324.578L983.017 333.285L977.265 332.318L980.716 323.611Z" fill="#EEEEEE"/>
<path d="M1007.18 328.93L1013.5 329.898L1010.63 338.121L1004.3 337.153L1007.18 328.93Z" fill="#EEEEEE"/>
<path d="M1174.56 367.628L1138.32 360.856L1139.47 353.6L1176.28 360.372L1174.56 367.628Z" fill="#EEEEEE"/>
<path d="M1271.19 384.557L1234.38 377.785L1235.53 371.98L1272.92 379.236L1271.19 384.557Z" fill="#EEEEEE"/>
<path d="M1222.3 375.853L1186.06 369.081L1187.21 362.792L1224.03 369.565L1222.3 375.853Z" fill="#EEEEEE"/>
<path d="M1369.55 401.97L1331.01 395.198L1333.31 390.844L1371.28 397.616L1369.55 401.97Z" fill="#EEEEEE"/>
<path d="M1432.82 409.226L1438 410.193V414.063L1430.52 413.096L1432.82 409.226Z" fill="#EEEEEE"/>
<path d="M1419.02 410.679L1380.48 403.907L1382.78 400.038L1420.74 407.293L1419.02 410.679Z" fill="#EEEEEE"/>
<path d="M1092.3 344.89L1128.54 351.662L1127.39 358.918L1091.15 352.63V351.179L1092.3 344.89Z" fill="#EEEEEE"/>
<path d="M1429.37 408.743H1428.8L1420.74 407.292L1432.82 409.227L1429.37 408.743Z" fill="#EEEEEE"/>
<path d="M1320.08 393.266L1282.12 386.978L1284.42 381.173L1322.39 388.429L1320.08 393.266Z" fill="#EEEEEE"/>
<path d="M1039.39 334.736L1080.8 342.475V346.345V350.699L1037.09 342.959L1030.76 341.992L1031.33 341.024L1033.06 333.769L1039.39 334.736Z" fill="#EEEEEE"/>
<path d="M1080.8 350.696V346.342L1091.15 351.18V352.631L1089.43 384.073L1079.07 379.719L1080.8 350.696Z" fill="#EEEEEE"/>
<path d="M1088.85 393.749L1087.13 416H1077.35L1078.5 389.395L1088.85 393.749Z" fill="#EEEEEE"/>
<path d="M1094.03 316.353L1093.45 318.288L1081.95 315.869L1082.53 313.451L1094.03 316.353Z" fill="#EEEEEE"/>
<path d="M1122.79 398.586L1126.24 368.112L1127.39 358.921L1128.54 351.665L1139.47 353.6L1138.32 360.856L1137.75 363.758L1136.59 372.949L1132.57 402.456L1131.42 411.646L1130.84 416H1120.49L1121.64 407.777L1122.79 398.586Z" fill="#EEEEEE"/>
<path d="M1142.92 328.445L1142.35 329.412L1131.42 326.993V326.026L1142.92 328.445Z" fill="#EEEEEE"/>
<path d="M1176.28 360.372L1187.21 362.791L1186.06 369.079L1176.28 416H1165.35L1174.56 367.628L1176.28 360.372Z" fill="#EEEEEE"/>
<path d="M1191.81 340.537V341.021L1180.31 338.118V337.635L1191.81 340.537Z" fill="#EEEEEE"/>
<path d="M1224.03 369.563L1235.53 371.981L1234.38 377.786L1223.45 416H1211.95L1222.3 375.851L1224.03 369.563Z" fill="#EEEEEE"/>
<path d="M1272.92 379.237L1284.42 381.172L1282.12 386.977L1271.77 416H1260.26L1271.19 384.558L1272.92 379.237Z" fill="#EEEEEE"/>
<path d="M1322.38 388.428L1333.31 390.846L1331.01 395.2L1321.81 416H1310.31L1320.08 393.265L1322.38 388.428Z" fill="#EEEEEE"/>
<path d="M1369.55 401.972L1371.28 397.618L1382.78 400.038L1380.48 403.907L1374.73 416H1369.55L1363.8 413.581L1369.55 401.972Z" fill="#EEEEEE"/>
<path d="M1420.74 407.292L1428.8 408.743H1429.37L1432.25 410.195L1432.82 409.227L1428.8 416H1416.14L1419.02 410.679L1420.74 407.292Z" fill="#EEEEEE"/>
<path d="M1019.83 411.163L1016.38 410.195L1018.68 400.521L1022.71 401.972H1023.28L1060.67 416H1033.06L1020.98 411.646L1019.83 411.163Z" fill="#EEEEEE"/>
<path d="M1079.08 379.723L1089.43 384.076L1088.85 393.75L1078.5 389.397L1031.33 370.048L1030.18 369.564L1027.31 368.597L1029.61 358.439L1034.21 360.374L1079.08 379.723Z" fill="#EEEEEE"/>
<path d="M1080.8 346.345V342.475L1092.31 344.894L1091.15 351.183L1080.8 346.345Z" fill="#EEEEEE"/>
<path d="M1369.55 416H1362.07L1363.8 413.581L1369.55 416Z" fill="#EEEEEE"/>
<path d="M1432.25 410.195L1429.37 408.743L1432.82 409.227L1432.25 410.195Z" fill="#EEEEEE"/>
</svg>
