<svg width="720" height="598" viewBox="0 0 720 598" fill="none" xmlns="http://www.w3.org/2000/svg">
<path d="M716.626 58.486C716.146 58.0158 716.525 57.4257 716.818 57.0084C717.552 55.9577 716.405 54.9023 716.899 53.8756C715.949 53.5494 714.922 53.0121 714.067 52.9449C712.786 52.8442 711.274 53.0456 710.184 54.1395C708.264 56.0633 705.331 57.0084 704.51 60.002C704.391 60.4433 703.982 60.4817 703.637 60.4673C700.733 60.357 699.106 62.1033 697.848 64.3965C697.762 64.5548 697.704 64.8474 697.608 64.8618C694.968 65.2168 696.173 67.4477 695.76 68.8245C695.568 69.4674 695.443 69.832 694.819 69.7552C693.624 69.6113 692.88 70.494 691.93 70.8491C689.578 71.727 687.341 73.243 684.576 72.6385C683.295 72.3603 682.335 73.339 681.341 73.9674C679.637 75.0421 679.388 75.0229 678.62 73.2478C678.053 71.9333 676.896 71.2952 675.744 70.662C674.703 70.0863 674.103 69.5825 674.741 68.1481C675.691 66.0132 674.453 63.9455 672.308 62.8373C671.405 62.3719 670.239 61.6283 670.724 60.0979C670.94 59.4215 670.964 58.6827 671.055 57.9726C671.117 57.4881 670.834 56.946 670.411 57.1859C669.231 57.8671 667.911 57.2866 666.644 57.9487C665.06 58.7786 663.567 57.4017 662.319 56.543C660.72 55.4444 659.703 53.4486 657.356 53.5926C657.236 53.6021 657.063 53.4007 656.986 53.2615C656.112 51.6832 655.215 50.7237 654.096 53.0744C653.031 52.3884 652.09 54.5664 650.828 53.1176C650.319 52.5371 649.071 52.6043 648.154 52.3788C648.168 52.4172 648.183 52.4556 648.197 52.4939C648.173 52.4651 648.149 52.4364 648.125 52.4076C648.255 50.6565 646.791 50.9971 646.157 51.3138C644.991 51.8942 643.719 52.1437 642.576 52.8346C640.277 54.221 637.762 53.4342 635.396 51.8127C634.196 50.9923 633.524 50.2151 633.02 48.9438C632.713 48.1666 632.535 47.5477 632.794 46.7418C633.269 45.2498 632.962 44.1223 631.143 43.9688C629.141 43.8009 628.964 41.4693 629.108 40.8697C629.578 38.9651 628.191 37.9624 627.481 36.9309C626.741 35.8611 625.743 34.6905 624.466 33.9517C622.743 32.9538 621.572 31.5961 622.181 29.3941C622.306 28.9479 622.263 28.4826 621.817 28.3051C620.276 27.6814 620.285 25.5225 618.567 25.0908C618.481 25.0668 618.346 24.9085 618.361 24.8317C618.701 22.8743 616.878 22.3466 615.975 21.224C615.092 20.1254 613.724 19.2714 614.732 17.4724C615.106 16.8007 614.626 16.225 613.796 16.1051C613.33 16.0379 612.874 15.9324 612.433 15.846C613.311 13.9798 611.607 13.1835 610.834 12.2767C609.975 11.2693 608.986 9.92597 606.932 10.2474C607.681 9.4894 607.652 8.73619 607.705 8.01178C607.719 7.80549 607.542 7.4025 607.518 7.4073C605.958 7.71913 605.271 6.15036 604.057 5.82893C603.558 5.6994 603.514 5.44033 603.26 5.16688C602.626 4.50483 602.103 3.75162 600.831 3.80919C599.588 3.86196 598.306 3.20471 597.058 2.80172C596.295 2.55225 595.374 2.19724 594.822 2.74415C593.468 4.07305 591.951 3.75642 590.353 3.66047C589.211 3.59331 588.227 3.54053 587.603 2.41313C587.449 2.13008 586.974 1.73189 586.806 1.79425C584.703 2.60503 583.287 0.182304 581.267 0.652456C580.95 0.724418 580.374 0.666849 580.681 0C579.841 0 579.001 0 578.161 0C578.137 0.167911 578.132 0.470152 578.084 0.479747C574.686 1.01227 572.012 3.85237 568.537 3.7852C565.604 3.73243 563.411 5.35878 561.039 6.41902C558.539 7.53683 556.24 9.06242 553.446 9.44142C552.179 9.61413 551.929 10.8663 551.315 11.677C549.495 14.0854 548.391 16.983 546.03 19.046C545.051 19.8999 545.641 21.2288 546.121 22.1739C546.592 23.0998 547.537 22.7736 548.339 22.3994C548.876 22.1451 549.409 21.8477 549.98 21.699C551.939 21.1904 553.302 22.3322 552.932 24.2848C552.726 25.3834 552.971 26.0215 553.839 26.7219C555.207 27.8157 554.833 31.1548 553.552 32.4165C551.108 34.8248 549.121 37.4203 548.204 40.9656C547.427 43.9592 546.716 47.02 545.656 49.9897C544.849 52.2445 544.12 54.6384 543.323 56.9604C543.088 57.656 543.376 58.438 542.636 59.0809C542.027 59.6086 542.521 60.3666 543.179 60.3426C545.507 60.2514 544.921 62.1081 545.008 63.2115C545.113 64.5596 544.206 65.591 542.819 65.8885C541.648 66.1379 540.539 66.6129 539.401 66.8432C538.321 67.0591 537.697 67.6635 537.112 68.4024C535.23 70.7579 533.291 73.0559 531.107 75.1428C530.425 75.7953 529.82 75.565 529.168 75.2963C527.708 74.687 526.23 74.452 524.627 74.5095C522.414 74.5863 520.47 73.4445 518.512 72.5761C517.657 72.1972 517.393 72.3459 517.144 73.1758C515.622 78.218 513.798 83.193 512.641 88.3167C512.161 90.4323 511.504 92.3609 510.63 94.2895C510.126 95.4073 510.51 96.5203 510.755 97.6333C510.966 98.588 511.125 99.4852 509.973 100.099C509.224 100.497 507.971 100.785 508.125 101.817C508.326 103.198 508.533 104.695 509.598 105.789C510.054 106.259 510.601 106.643 511.11 107.06C513.52 109.051 513.52 109.051 515.497 106.576C516.136 105.779 516.909 105.324 517.984 105.448C519.069 105.573 520.148 105.535 521.147 105.021C523.341 103.899 525.313 104.451 527.204 105.765C527.747 106.139 528.294 106.513 528.841 106.878C529.508 107.324 530.142 107.319 530.435 106.494C530.809 105.444 531.577 104.671 532.158 103.774C532.825 102.743 533.036 101.212 534.313 100.8C536.689 100.027 539.18 99.701 541.691 100.066C542.435 100.171 542.9 100.848 543.308 101.423C544.235 102.719 545.44 103.472 547.019 103.678C548.128 103.827 549.15 104.139 549.323 105.511C549.352 105.727 549.496 106.043 549.664 106.106C552.078 107.008 553.412 109.478 555.846 110.342C556.009 110.399 556.177 110.515 556.287 110.644C557.79 112.453 559.206 114.362 559.873 116.617C560.387 118.354 559.206 119.548 557.329 119.481C555.664 119.423 554.132 120.201 552.376 119.961C551.118 119.788 550.528 118.421 549.174 118.675C548.833 118.737 548.329 118.402 548.046 118.8C546.86 120.46 545.137 120.258 543.467 120.133C542.651 120.071 541.95 120.124 541.288 120.671C539.939 121.789 538.12 122.254 537.16 123.967C536.723 124.753 535.864 124.456 535.172 123.818C534.323 123.036 532.633 123.588 532.446 124.662C532.278 125.646 532.59 127.095 531.846 127.493C530.824 128.04 529.408 128.001 528.169 127.963C525.836 127.886 524.372 129.028 523.245 130.913C522.419 132.29 521.286 133.47 520.864 135.102C520.585 136.186 520.019 137.131 520.701 138.349C521.094 139.05 520.504 140.019 519.774 140.235C517.864 140.796 516.971 142.399 515.838 143.737C515.19 144.5 514.542 145.152 513.573 145.397C510.76 146.107 508.014 147.215 504.99 146.496C503.373 146.112 502.163 147.062 501.789 148.693C501.587 149.576 501.16 150.348 500.646 151.106C498.621 154.104 495.472 155.923 493.029 158.48C492.813 158.71 492.366 158.878 492.059 158.839C489.04 158.46 485.958 158.691 482.982 157.909C481.758 157.587 480.611 157.228 479.795 156.095C479.056 155.069 477.986 154.507 476.646 154.963C475.226 155.448 473.709 154.589 472.269 155.457C469.523 157.108 469.192 160.044 468.39 162.658C468.083 163.656 467.934 164.707 467.45 165.676C466.869 166.832 466.677 167.753 467.829 169.005C469.034 170.315 469.49 172.306 471.246 173.232C472.298 173.784 473.008 174.652 473.608 175.635C474.554 177.18 474.4 177.598 472.686 178.336C472.422 178.452 472.082 178.595 471.971 178.826C470.661 181.579 467.858 182.318 465.477 183.532C462.587 185.005 461.234 187.691 459.779 190.249C457.931 193.506 455.503 195.857 451.835 196.85C450.439 197.229 449.143 197.92 448.039 198.831C446.253 200.314 444.261 200.789 442.019 200.51C441.055 200.39 440.133 200.39 439.25 200.961C438.88 201.201 438.319 201.335 437.887 201.264C431.45 200.179 425.311 202.036 419.076 203.063C411.132 204.367 404.474 208.599 397.524 212.178C395.849 213.041 394.001 213.708 392.901 215.43C392.714 215.723 392.388 216.021 392.009 215.699C390.847 214.716 389.469 215.181 388.197 215.171C386.945 215.167 386.527 214.754 386.575 213.492C386.652 211.367 386.508 211.156 384.434 211.852C379.212 213.603 374.561 213.008 369.914 209.846C367.058 207.908 363.324 207.745 359.945 207.03C356.916 206.387 354.588 205.245 353.297 202.281C352.644 200.789 351.185 200.045 349.62 200.112C344.374 200.342 339.454 198.591 334.395 197.723C332.652 197.426 330.972 197.128 329.297 197.853C325.524 199.488 321.857 198.126 318.19 197.45C311.768 196.269 305.388 194.811 298.937 193.827C296.206 193.41 293.34 193.875 290.537 193.981C289.054 194.039 287.547 194.278 287.94 191.923C288.051 191.266 287.47 190.723 287.043 190.22C286.035 189.03 285.06 187.807 284.009 186.66C283.117 185.681 282.867 184.554 282.593 183.283C281.888 180.02 280.88 176.825 279.973 173.611C279.857 173.203 279.569 172.901 279.181 172.675C277.429 171.668 277.088 170.9 278.115 169.183C279.113 167.513 278.211 167.513 277.011 167.628C273.934 167.931 271.467 166.976 269.456 164.52C268.213 163.008 265.942 162.505 265.16 160.432C265.088 160.24 264.632 160.053 264.392 160.096C262.352 160.442 261.401 159.166 260.734 157.602C259.649 155.049 257.23 154.56 255.017 153.725C251.298 152.32 247.222 152.819 243.507 151.768C240.939 151.044 238.414 150.386 235.774 150.051C235.338 149.998 234.958 149.59 234.531 149.388C232.621 148.506 230.749 147.498 228.762 146.846C228.046 146.611 227.662 146.486 227.466 145.781C226.89 143.675 225.503 141.765 226.472 139.343C227.158 137.62 228.44 136.464 229.731 135.37C231.046 134.257 231.421 133.159 230.768 131.614C230.307 130.515 230.293 129.513 231.046 128.419C232.587 126.183 232.669 123.823 232.098 121.093C231.709 119.246 230.73 118.219 229.784 116.847C228.421 114.871 228.008 112.429 227.749 109.948C227.562 108.145 227.682 105.871 225.243 104.973C224.523 104.71 224.221 103.908 224.379 102.992C224.552 101.98 223.549 101.5 223.059 101.913C221.091 103.563 220.597 101.678 219.944 100.67C218.471 98.3818 218.187 98.1946 215.538 98.8711C214.803 99.0582 213.8 99.0342 213.551 98.4345C212.792 96.6067 210.92 96.1701 209.658 94.9995C209.082 94.4622 208.947 93.9393 209.077 93.258C209.283 92.1738 208.899 91.4542 207.891 90.9361C206.749 90.346 206.12 89.1082 204.815 88.5901C204.061 88.2879 202.309 87.6546 204.291 86.2058C205.165 85.5677 204.152 84.6466 203.413 84.306C202.635 83.951 202.131 83.5336 201.906 82.6892C201.81 82.3198 201.584 81.9744 202.064 81.8305C203.384 81.4323 203.24 80.6167 203.106 79.4701C202.832 77.1865 202.938 77.0138 200.725 77.4504C198.872 77.815 197.322 77.7094 195.484 76.9946C194.154 76.4765 192.047 76.0975 190.698 77.887C190.199 78.5442 189.844 79.1151 189.954 79.9787C190.324 82.9003 187.952 85.2079 185.154 85.702C183.104 86.0666 181.208 85.8412 179.25 85.678C178.357 85.6061 177.772 86.0043 177.296 86.6951C175.175 89.7799 173.509 92.927 173.653 96.9329C173.73 99.1158 173.696 101.366 173.528 103.573C173.413 105.122 170.72 106.95 169.204 106.657C168.44 106.509 167.874 106.59 167.212 107.065C166.4 107.65 165.421 108.005 164.514 108.466C163.506 108.984 162.517 109.589 162.719 107.564C162.786 106.883 162.277 106.226 161.557 106.158C159.378 105.957 157.434 104.868 155.116 104.916C152.836 104.964 150.882 103.328 149.188 101.817C148.161 100.9 147.009 100.157 145.977 99.2501C145.18 98.5545 143.97 98.2474 143.673 99.8306C142.933 103.755 139.842 106.379 138.253 109.843C136.972 112.635 134.577 114.823 133.67 117.888C133.103 119.807 131.279 120.987 130.415 122.791C129.638 124.422 129.719 124.864 131.385 125.718C132.086 126.073 133.242 126.169 133.137 127.234C133.007 128.543 132.479 129.81 131.462 130.726C130.919 131.216 130.54 130.626 130.377 130.227C129.599 128.332 128.246 128.299 126.537 128.788C124.694 129.316 123.93 128.721 123.767 126.778C123.652 125.435 122.951 124.945 121.718 125.267C118.977 125.977 116.15 125.962 113.366 126.26C111.724 126.437 110.01 125.363 108.441 125.91C106.113 126.716 103.598 125.214 101.399 126.692C100.766 127.119 99.4409 126.994 99.7433 128.179C100.012 129.234 100.867 129.997 102.047 130.199C104.246 130.568 104.246 130.568 105.729 131.998C104.035 133.317 103.607 135.26 103.353 137.188C103.195 138.383 103.099 139.53 102.561 140.647C101.923 141.972 102.671 143.31 102.806 144.634C103.07 147.191 103.531 149.729 103.905 152.272C103.915 152.329 103.948 152.416 103.924 152.444C102.311 154.248 103.627 156.254 103.727 158.537C101.875 156.81 100.348 158.115 98.8025 158.436C98.0489 158.595 97.8041 159.286 98.3321 159.981C98.6489 160.403 99.0521 160.758 99.4265 161.152C99.0761 161.675 98.5337 161.483 98.1017 161.521C95.2554 161.776 94.1754 163.479 94.041 166.443C93.9594 168.19 93.7194 170.061 93.3786 171.85C92.8218 174.781 91.4682 173.596 90.105 173.347C88.977 173.146 87.9402 173.035 87.273 174.215C86.9562 174.772 86.4858 174.772 85.905 174.801C81.3451 175.045 76.8811 175.962 72.4891 177.137C71.5771 177.382 70.6219 177.9 69.6667 178.049C67.5067 178.38 67.0508 180.553 65.558 181.613C64.3436 182.481 63.35 183.273 61.9004 182.323C60.6332 181.493 59.318 182.366 58.0556 182.189C55.6988 181.853 53.5292 180.86 51.4173 179.824C49.5885 178.926 47.6877 179.353 46.8285 181.215C46.5885 181.733 46.2237 181.901 45.7821 182.083C45.2013 182.323 44.6589 182.716 44.5437 183.307C44.1789 185.144 42.4653 185.84 41.4141 187.087C40.9917 187.586 39.8349 188.627 39.4269 186.799C39.3933 186.66 39.0861 186.435 39.0573 186.459C37.7662 187.418 36.2542 185.883 35.083 186.718C34.003 187.485 33.1486 186.78 32.1934 186.689C31.5502 186.626 31.5214 186.022 31.7374 185.768C32.707 184.626 31.9054 183.35 32.0878 182.155C32.2558 181.066 31.5502 180.606 30.499 180.937C29.5294 181.244 28.6126 181.714 27.643 182.011C26.1406 182.467 24.7246 182.352 23.5966 181.076C23.2462 180.678 22.939 180.092 22.3055 180.289C21.6287 180.495 21.3599 181.124 21.1103 181.757C20.9903 182.064 21.6047 182.774 20.7887 182.664C19.1615 182.448 17.9711 183.383 16.6511 184.002C15.5039 184.54 14.5055 184.837 13.1039 184.333C11.6927 183.825 9.92633 183.724 8.73594 185.346C8.21755 186.056 7.47355 186.598 6.85915 187.245C6.37916 187.749 6.20156 188.282 6.47036 189.03C7.24795 191.179 6.02396 192.743 3.78237 192.407C2.77918 192.259 2.60158 192.638 2.14559 193.434C0.878394 195.66 1.02719 197.661 1.95359 199.992C2.47678 201.302 0.719995 200.789 0.00479997 201.124C0.00479997 203.163 0.00479997 205.202 0.00479997 207.241C0.767995 206.829 0.859194 207.659 1.23359 207.932C2.16959 208.613 2.85598 209.366 3.99357 207.908C5.07357 206.522 6.58556 207.611 7.61275 208.306C9.02874 209.266 10.2383 210.547 11.4671 211.76C12.1487 212.432 12.1343 213.176 11.4671 213.977C10.0799 215.642 9.18234 217.45 10.3295 219.647C10.5407 220.05 10.3775 220.449 10.3055 220.866C10.1423 221.749 9.40314 222.574 10.1183 223.572C10.3919 223.956 9.89753 224.368 9.60474 224.613C8.22715 225.745 8.57274 226.82 9.54714 228.005C10.1471 228.734 11.1119 229.477 10.0031 230.581C8.96634 231.612 6.76315 231.876 6.49916 231.516C4.41117 228.643 2.13119 231.089 0 230.993C0 231.473 0 231.953 0 232.433C1.29119 233.867 3.13918 234.448 4.67037 235.513C4.98717 235.733 5.03037 236.108 5.04477 236.482C5.08317 237.441 5.36636 237.739 6.19676 236.957C6.74875 236.439 7.47835 236.698 8.08795 236.875C9.81113 237.374 11.2367 239.375 11.1311 241.183C11.0735 242.215 11.5343 242.8 12.4607 242.546C13.8911 242.152 14.6687 242.949 15.3071 243.889C16.5167 245.669 17.1167 247.54 16.3391 249.79C15.8639 251.167 15.6719 252.438 14.3327 253.46C13.4735 254.117 14.1791 255.369 15.1679 255.955C15.7247 256.281 16.1135 256.593 16.1183 257.312C16.1327 259.596 16.5647 260.023 18.8447 260.042C19.3679 260.047 19.8911 259.855 20.4191 259.821C20.7311 259.802 21.3791 259.73 21.2063 260.191C20.4095 262.321 22.4158 263.117 23.323 264.13C24.8302 265.813 26.923 266.931 28.9534 268.078C30.2878 268.831 31.6606 269.426 33.019 270.093C34.1998 270.673 35.7982 270.107 36.691 271.594C36.9694 272.06 37.7325 271.172 38.3373 271.345C38.3997 271.455 38.5245 271.599 38.5005 271.633C37.1038 273.47 37.2958 275.413 37.7277 277.562C38.1597 279.697 38.1117 281.943 38.1357 284.145C38.1501 285.641 38.5965 286.822 40.0941 287.181C42.8685 287.848 43.7037 290.492 45.3981 292.233C46.3197 293.178 45.7053 294.239 44.2125 294.752C43.4253 295.021 42.4749 294.915 41.8461 295.519C41.2173 296.124 41.0493 296.987 41.1789 297.851C41.4189 299.439 41.2653 301.032 40.5741 302.428C39.2397 305.134 40.9149 307.096 41.9661 309.24C42.7005 310.742 44.0973 311.476 45.4701 312.219C45.8829 312.445 46.3485 312.704 45.9453 313.117C44.2125 314.887 45.5469 316.715 45.8013 318.49C46.1037 320.572 44.2893 322.572 42.2205 322.16C41.1213 321.939 40.2381 321.901 39.5997 323.019C39.1389 323.834 38.2029 323.618 37.6749 323.374C36.7486 322.942 36.2446 321.978 36.0094 320.97C35.9182 320.581 35.971 320.116 36.1006 319.732C36.571 318.365 36.1342 317.943 34.8526 318.547C33.9886 318.95 33.2206 318.686 32.4094 318.504C31.0942 318.202 30.2302 318.432 30.5998 320.082C30.6622 320.366 30.7582 320.692 30.6766 320.951C29.8174 323.781 31.1038 326.137 32.395 328.444C32.8126 329.188 32.6398 329.625 32.2606 330.21C31.3582 331.592 30.5566 332.973 31.9774 334.556C32.443 335.075 31.915 335.434 31.4638 335.626C30.6094 335.991 29.899 336.351 30.691 337.435C30.9934 337.848 30.6046 338.231 30.4366 338.591C29.851 339.824 30.4222 340.549 31.579 340.553C32.5678 340.558 33.8062 340.966 34.5118 339.699C34.8718 339.057 35.3374 339.296 35.587 339.805C35.8702 340.39 36.1726 341.019 36.235 341.652C36.4894 344.204 37.8189 346.214 39.3405 348.143C39.6045 348.479 39.9597 348.829 40.3965 348.709C43.3821 347.917 44.1405 350.59 45.6621 352.067C45.8205 352.221 45.8205 352.638 45.9741 352.686C48.8541 353.641 46.4157 355.425 46.7373 356.836C47.7069 356.855 48.5277 357.388 49.3101 358.093C50.0973 358.803 50.8125 359.609 51.9453 359.878C52.5788 360.031 53.15 360.602 53.3324 361.211C53.7164 362.492 54.6284 363.164 55.694 363.763C56.918 364.449 56.6156 365.783 56.8172 366.819C57.0188 367.861 57.2732 368.503 58.3196 368.959C59.5196 369.482 59.7404 368.379 60.3788 368.004C61.5884 367.29 62.5628 366.368 62.6588 364.828C62.6684 364.675 62.8412 364.536 62.942 364.392C64.2236 365.754 65.8604 363.154 67.1516 364.781C67.5739 365.313 68.2939 365.361 68.9371 365.529C71.2171 366.124 72.1243 367.553 71.7787 369.943C71.6827 370.605 71.7787 371.128 72.4411 371.425C75.5227 372.821 77.4475 375.354 79.0507 378.189C79.5643 379.091 80.0491 379.888 81.2827 379.917C81.7722 379.926 82.2475 380.363 82.5019 380.89C82.7995 381.505 83.0778 382.114 83.9658 381.529C84.489 381.183 84.7578 381.773 84.9018 382.075C85.9146 384.225 86.9706 386.364 87.801 388.586C88.3626 390.092 89.3082 390.61 90.6138 389.737C91.6842 389.022 95.481 389.19 95.9658 390.241C96.5706 391.555 96.7146 393.114 96.8778 394.587C96.9354 395.105 96.7194 395.729 97.1754 396.074C98.3225 396.948 98.8697 398.564 99.7529 399.212C101.313 400.354 102.201 402.019 103.689 403.112C104.63 403.803 105.575 404.273 106.746 403.443C107.279 403.064 108.014 402.57 108.647 403.376C109.324 404.235 108.302 404.48 107.98 404.902C106.718 406.543 106.948 407.843 108.71 408.754C109.569 409.2 110.486 409.44 111.422 409.512C116.375 409.906 117.561 411.618 118.295 415.907C118.511 417.155 118.929 417.457 119.908 417.438C121.074 417.414 121.458 416.728 121.218 415.619C121.089 415.024 121.05 414.43 121.852 413.878C121.655 416.056 123.234 416.78 124.626 417.687C125.726 418.402 126.508 418.157 127.132 417.063C128.126 415.327 128.817 415.274 129.916 416.895C130.377 417.572 131.193 417.692 131.798 418.104C134.365 419.865 136.487 422.71 140.188 422.129C140.994 422.005 141.537 422.7 142.348 422.801C143.428 422.935 144.191 422.873 145.146 422.24C146.361 421.434 147.589 422.58 148.823 422.801C149.135 422.854 149.663 423.305 149.692 422.84C149.793 421.021 151.141 421.798 151.938 421.755C153.441 421.664 154.876 421.463 156.234 420.772C157.156 420.302 159.273 421.453 159.431 422.499C159.709 424.384 159.378 426.131 158.313 427.757C156.613 430.352 156.829 431.571 159.349 433.826C160.165 432.329 160.818 430.775 162.757 430.232C163.429 430.045 163.799 428.745 164.288 427.939C164.831 427.047 165.479 426.327 166.53 425.982C167.6 425.632 168.205 424.672 168.896 423.852C169.919 422.638 171.052 421.616 172.789 421.688C173.495 421.717 174.004 421.405 174.536 420.94C176.092 419.596 180.724 420.057 182.005 421.607C182.418 422.106 182.116 422.499 181.866 422.902C181.208 423.948 181.717 424.466 182.711 424.687C183.469 424.854 184.247 424.979 185.02 425.018C187.208 425.123 189.172 425.737 190.847 427.234C191.692 427.987 192.632 427.891 193.415 427.071C194.356 426.083 195.2 426.097 196.165 427.076C196.611 427.527 197.221 427.93 197.831 428.088C199.362 428.491 200.538 428.952 199.727 430.928C199.443 431.624 199.712 432.219 200.672 432.18C201.536 432.147 202.275 432.54 203.048 432.89C203.917 433.279 204.949 433.586 205.77 432.857C206.677 432.051 207.661 432.142 208.626 432.444C211.17 433.24 213.215 431.94 215.312 430.938C216.056 430.583 216.455 429.642 216.085 428.956C215.264 427.426 216.594 427.498 217.261 427.287C219.949 426.423 222.627 425.454 223.616 422.518C224.557 419.716 226.928 420.225 228.666 420.465C231.709 420.887 233.974 419.299 236.259 418.052C237.037 417.629 238.107 416.603 238.803 415.663C240.018 414.027 241.664 413.307 243.589 413.048C244.107 412.976 244.491 412.717 244.779 412.319C245.624 411.153 246.526 411.647 246.81 412.568C247.501 414.809 249.613 414.569 251.139 415.255C251.845 415.571 252.723 415.639 253.405 416.104C255.675 417.649 257.144 417.572 258.464 415.36C259.707 413.278 261.857 412.947 263.71 411.997C263.758 411.973 263.84 412.007 263.888 411.983C265.923 410.975 267.171 411.436 267.617 413.806C267.776 414.655 268.664 414.871 269.763 414.957C268.381 415.691 267.233 416.301 266.057 416.924C266.192 417.634 267.113 418.162 266.533 419.045C266.269 419.448 266.422 419.875 266.816 420.143C267.339 420.503 267.728 420.119 268.078 419.812C268.947 419.054 269.677 418.013 271.069 418.459C271.16 419.62 271.774 420.58 272.293 421.568C272.71 422.36 272.552 422.691 271.827 423.29C270.565 424.336 268.837 425.008 268.462 426.975C268.366 427.469 267.545 427.824 266.993 428.304C267.185 428.395 267.31 428.467 267.449 428.52C268.625 428.975 269.638 429.69 271.04 428.596C272.149 427.728 273.488 427.93 274.659 429.254C275.537 430.247 277.222 430.626 278.432 430.304C279.771 429.949 280.414 430.4 281.197 431.187C283.184 433.183 284.657 432.77 285.483 430.069C285.699 429.364 285.987 428.208 286.688 428.299C287.513 428.4 288.886 428.313 288.939 429.925C288.963 430.664 289.544 431.23 290.48 430.981C290.648 430.938 290.844 430.914 291.003 430.957C291.536 431.106 294.267 434.761 294.19 435.332C293.782 438.393 295.308 441.041 295.937 443.881C296.062 444.452 296.369 444.913 296.974 444.97C297.588 445.028 297.972 444.63 298.174 444.078C298.318 443.689 298.419 443.282 298.544 442.869C299.672 442.811 300.204 444.107 301.318 444.092C301.635 444.088 301.712 444.38 301.664 444.601C301.294 446.242 302.268 447.926 301.548 449.533C300.838 451.111 301.956 452.483 301.928 454.018C301.87 457.017 301.985 460.006 301.308 462.956C301.232 463.297 301.15 463.69 300.934 463.944C300.094 464.913 299.796 465.882 300.963 466.914C298.164 467.49 297.828 468.603 299.576 470.68C299.96 471.136 300.483 471.654 300.08 472.249C299.7 472.805 299.134 472.441 298.63 472.206C297.944 471.884 297.473 472.33 297.118 472.829C296.705 473.414 296.316 474.029 296.014 474.676C295.385 476.015 294.699 476.917 293.134 475.684C292.539 475.218 292.188 475.487 291.896 476.283C291.248 478.049 291.219 480.212 289.136 481.191C288.852 481.326 288.66 481.892 288.276 481.517C286.836 480.131 286.668 481.561 286.265 482.405C284.624 485.854 284.629 485.854 285.224 487.644C282.584 488.301 282.157 488.829 281.912 491.578C281.859 492.168 281.686 492.748 281.566 493.334C281.398 494.188 281.336 494.898 282.608 494.782C283.462 494.706 283.841 495.118 283.39 496.001C283.289 496.193 283.203 496.562 283.299 496.663C285.277 498.712 283.645 499.868 282.243 501.105C280.769 502.41 280.841 503.303 282.565 504.387C283.189 504.78 283.596 504.061 284.033 503.806C285.881 502.727 287.624 501.345 289.764 501.005C292.155 500.621 294.632 500.136 296.974 501.341C297.459 501.59 297.867 501.465 298.347 501.345C299.206 501.134 300.06 500.755 301.016 500.971C301.044 501.696 300.368 501.849 299.979 501.974C298.164 502.559 298.409 504.061 298.26 505.428C298.203 505.946 298.433 506.186 298.827 506.421C300.55 507.448 300.756 508.115 299.945 509.971C299.787 510.336 299.753 510.83 299.988 510.988C301.904 512.284 301.025 513.987 300.718 515.603C300.641 516.002 300.651 516.361 301.097 516.462C302.95 516.889 304.544 517.892 306.238 518.669C306.454 518.77 306.814 518.631 307.078 518.53C308.715 517.921 309.972 518.602 310.587 520.631C309.459 520.06 309.353 520.761 308.729 521.452C307.131 523.231 307.476 525.035 307.644 526.964C307.678 527.372 307.726 527.899 307.323 528.12C305.811 528.955 305.624 530.62 304.856 531.915C303.972 533.392 304.232 533.829 305.921 534.381C307.39 534.86 308.854 534.222 310.347 534.587C311.72 534.923 312.843 535.978 314.345 535.858C314.494 535.849 314.676 536.127 314.806 536.093C317.503 535.46 316.697 536.875 316.193 538.315C315.55 540.162 316.601 541.611 318.795 542.047C318.684 542.488 318.54 542.925 318.468 543.376C318.305 544.398 318.948 545.07 319.587 545.703C320.311 546.418 320.969 545.751 321.526 545.425C322.5 544.849 323.062 544.575 324.247 545.506C325.558 546.537 327.54 546.005 328.635 544.676C330.012 542.997 331.827 542.282 333.684 541.491C334.318 541.222 334.534 541.15 334.817 541.908C335.283 543.155 335.23 544.446 335.412 545.712C335.604 547.056 335.719 548.423 336.055 549.728C336.223 550.385 336.895 551.22 337.668 550.683C339.723 549.258 341.556 550.044 343.212 551.191C344.561 552.127 344.988 551.206 345.636 550.462C346.404 549.579 345.852 549.157 345.108 548.644C344.302 548.087 344.422 545.233 345.358 544.292C345.967 543.678 346.135 543.285 345.42 542.728C345.377 542.695 345.314 542.628 345.319 542.589C345.881 539.202 341.988 537.403 342.276 534.074C342.324 533.522 341.887 533.167 342.727 532.75C343.409 532.414 343.73 531.449 343.783 530.581C343.817 530.025 344.119 529.665 344.599 529.511C345.219 529.315 345.382 529.842 345.626 530.255C346.097 531.047 346.524 531.67 347.527 530.687C348.132 530.097 349.082 530.193 349.889 530.576C351.271 531.234 352.322 531.181 353.148 529.602C353.878 528.206 355.51 527.386 355.836 525.664C355.874 525.467 356.273 525.198 356.398 525.395C357.305 526.83 359.206 526.143 360.266 527.266C360.775 527.803 361.721 527.784 362.014 528.681C362.436 529.967 363.612 530.811 364.721 530.596C365.585 530.428 366.535 529.42 366.924 528.346C367.399 527.036 368.983 526.657 369.406 525.256C369.521 524.877 370.01 525.366 370.159 525.64C370.476 526.211 370.678 526.839 371.004 527.405C371.268 527.871 371.618 528.35 372.271 528.216C372.886 528.086 373.073 527.54 373.241 527.031C373.332 526.753 373.27 526.417 373.385 526.148C373.798 525.165 374.234 524.551 375.228 525.755C376.212 526.945 377.354 528.014 378.477 529.08C379.279 529.842 379.855 529.612 380.071 528.528C380.225 527.765 380.345 526.993 380.527 526.239C380.729 525.395 381.367 525.026 382.145 524.728C383.085 524.368 383.013 525.208 383.373 525.582C384.377 526.623 385.533 526.95 386.657 525.827C387.612 524.867 388.682 524.536 390.017 524.527C391.452 524.517 393.036 522.502 392.762 521.087C392.58 520.161 392.892 519.331 393.559 519.106C395.018 518.611 396.084 517.23 397.769 517.302C397.994 517.311 398.225 517.177 398.45 517.105C399.132 516.899 398.973 515.301 399.804 515.863C401.085 516.726 402.487 517.618 403.183 519.149C403.255 519.302 403.207 519.509 403.26 519.681C403.394 520.127 403.759 520.516 404.167 520.411C406.634 519.768 407.743 524.186 410.632 522.07C411.813 521.202 413.133 521.173 413.901 522.747C414.41 523.798 415.26 523.668 416.042 523.414C417.64 522.891 419.157 522.382 420.794 523.375C421.485 523.793 422.2 524.085 421.908 525.006C421.663 525.779 421.754 526.93 420.405 526.858C420.184 526.849 419.911 526.854 419.743 526.969C418.615 527.751 418.658 531.445 419.863 532.044C420.674 532.447 420.808 532.903 420.722 533.733C420.602 534.884 421.279 535.978 420.914 537.221C420.722 537.864 421.384 538.017 422.018 537.701C423.616 536.904 424.764 538.958 426.343 538.425C426.357 538.42 426.41 538.516 426.439 538.569C427.888 541.04 428.152 541.246 430.581 541.884C430.749 541.927 430.98 541.956 431.066 542.076C432.78 544.484 435.103 543.506 437.215 543.069C438.938 542.709 440.599 543.083 441.583 544.518C442.451 545.789 443.311 545.765 444.151 544.307C444.405 543.865 444.717 543.769 445.063 543.597C445.202 543.525 445.451 543.467 445.547 543.539C446.704 544.403 447.055 544.268 447.779 542.796C447.923 542.508 447.703 542.057 448.298 541.855C448.495 542.484 447.779 543.669 449.114 543.63C450.266 543.597 450.832 542.795 451.346 541.86C451.586 541.423 451.135 540.555 451.931 540.57C452.493 540.579 452.992 541.03 453.218 541.673C453.463 542.378 453.88 542.676 454.706 542.301C456.275 541.587 457.773 542.805 459.352 542.608C459.515 542.589 459.832 542.824 459.866 542.987C459.923 543.304 459.664 543.52 459.367 543.635C458.896 543.813 458.435 544.009 458.555 544.628C458.675 545.233 459.299 545.146 459.698 545.357C460.394 545.722 461.071 545.53 461.771 545.266C462.472 545.002 463.154 544.499 464.272 544.94C462.717 546.835 461.671 548.979 459.847 550.563C459.443 550.913 459.141 551.34 459.568 551.767C459.938 552.131 460.399 551.848 460.615 551.469C462.482 548.193 464.68 545.175 467.589 542.608C468.702 544.148 470.296 544.244 472.264 543.578C472.096 544.288 472.043 544.978 471.482 544.969C469.874 544.95 469.566 545.722 469.912 547.075C469.941 547.185 469.96 547.382 469.902 547.416C468.405 548.337 469.01 549.795 468.842 551.105C468.654 552.602 468.41 553.959 469.979 554.895C470.181 555.015 470.325 555.437 470.296 555.691C470.075 557.581 471.568 558.502 472.355 559.855C472.778 560.584 473.09 561.77 473.301 562.758C473.507 563.717 473.435 564.259 474.458 563.381C474.971 562.94 475.538 563.07 476.142 563.242C478.374 563.871 481.086 562.95 482.306 561.194C483.626 559.299 483.443 557.687 481.696 555.902C481.533 555.734 481.134 555.614 481.144 555.49C481.278 553.009 480.155 552.434 477.846 552.961C477.011 553.153 476.978 552.05 477.069 551.129C477.76 551.292 478.398 551.762 479.162 551.282C480.165 550.654 481.182 550.639 481.979 551.776C482.205 552.098 482.646 552.271 483.002 552.486C483.563 552.827 483.899 552.496 484.163 552.05C484.422 551.608 484.307 551.124 483.856 551.009C482.114 550.567 482.862 549.502 483.237 548.6C483.693 547.502 484.216 546.427 484.797 545.391C485.224 544.623 485.637 543.837 486.87 544.192C487.994 544.513 488.747 543.405 489.702 543.021C490.821 542.57 491.906 542.292 493.091 542.407C493.048 542.325 493.01 542.239 492.966 542.157C493.01 542.239 493.048 542.321 493.091 542.407C493.749 542.8 493.816 542.867 494.301 542.354C495.093 541.519 495.942 541.232 497.123 541.232C498.165 541.236 499.461 541.212 500.013 539.879C500.2 539.428 500.824 539.188 501.045 539.466C502.077 540.776 502.917 539.696 503.814 539.356C504.309 539.169 504.957 539.044 504.952 538.387C504.947 537.662 504.045 537.984 503.656 537.418C504.265 536.751 504.832 536.093 505.883 535.974C506.445 535.911 506.67 535.863 507.121 536.434C508.077 537.653 510.011 537.432 510.707 536.012C511.149 535.105 511.547 535.191 512.19 535.508C513.395 536.103 514.192 535.82 514.801 534.577C515.128 533.915 515.757 533.388 516.299 532.85C516.616 532.534 517.057 532.375 517.321 532.932C517.71 533.743 518.286 534.007 519.049 533.512C519.909 532.956 520.398 532.203 520.043 531.099C519.721 530.106 519.534 529.113 520.576 528.355C521.08 529.737 524.013 531.128 525.568 530.749C526.648 530.485 526.192 529.444 525.976 529.214C524.742 527.899 525.678 527.976 526.681 527.851C527.963 527.693 529.542 525.05 528.678 524.268C526.849 522.603 528.731 519.518 525.721 518.635C526.614 517.906 527.224 518.276 527.79 518.175C529.163 517.93 530.382 518.237 530.732 519.878C530.92 520.756 532.091 521.068 531.995 522.147C531.961 522.521 532.417 522.545 532.681 522.373C534.376 521.231 536.497 521.13 538.23 520.108C539.588 519.307 540.668 519.115 541.297 520.957C541.532 521.653 541.988 522.142 542.713 521.303C543.145 520.799 544.552 520.852 543.5 519.566C542.531 518.386 543.006 516.976 544.465 516.275C544.864 516.716 544.59 517.283 544.72 517.772C544.931 518.568 545.142 519.321 546.246 519.077C546.592 519 546.961 518.885 547.163 519.346C547.633 520.401 548.224 519.537 548.195 519.24C548.036 517.628 549.894 517.182 550.081 515.752C550.158 515.153 553.561 514.831 553.945 515.44C554.9 516.956 556.465 516.299 557.703 516.529C558.639 516.707 558.563 515.201 558.323 514.884C557.646 513.987 558.035 513.205 558.639 512.946C559.388 512.629 560.42 513.066 560.718 513.872C561.169 515.085 561.591 514.985 562.235 514.126C562.743 513.445 563.559 513.181 564.241 513.027C565.691 512.701 566.905 512.207 567.721 510.892C568.043 510.379 568.623 510.504 569.185 510.523C571.657 510.6 572.329 509.851 572.166 507.347C572.113 506.57 573.961 504.795 574.811 505.039C575.996 505.38 575.891 504.507 575.598 504.161C574.676 503.072 575.315 502.295 575.924 501.499C576.356 500.938 576.347 500.285 576.529 499.22C577.398 501.163 578.487 502.549 580.297 501.014C580.916 500.487 580.321 499.57 579.308 499.306C580.225 498.117 581.07 497.143 582.793 498.002C583.35 498.28 584.809 497.877 584.679 497.546C584.199 496.298 586.436 495.521 585.15 494.418C584.324 493.708 585.121 493.108 585.044 492.47C585.039 492.436 585.38 492.278 585.486 492.331C586.163 492.657 586.067 493.295 586.062 493.89C586.062 494.298 586.062 494.706 586.062 495.233C587.214 494.811 587.108 494.024 587.099 493.166C587.089 492.48 586.556 491.084 588.323 491.794C588.841 492.005 588.86 491.299 589.119 491.021C590.353 489.721 590.842 487.951 591.956 486.584C592.033 486.492 592.119 486.406 592.201 486.32C593.756 484.607 593.756 484.607 592.153 482.755C593.329 482.722 593.833 482.127 594.082 481.071C594.318 480.088 596.9 478.764 597.874 478.908C598.177 478.951 598.455 479.004 598.609 479.325C598.791 479.704 598.714 480.457 599.439 480.16C600.106 479.886 600.846 479.33 600.783 478.615C600.702 477.708 601.129 477.195 601.618 476.629C601.916 476.283 602.127 475.818 601.887 475.477C600.514 473.539 602.439 473.803 603.202 473.678C604.959 473.4 605.718 472.018 604.878 470.435C604.58 469.879 604.422 469.802 604.023 470.253C603.73 470.584 603.289 470.622 603.097 470.301C602.77 469.764 603.548 470.027 603.644 469.716C603.802 469.207 604.009 468.718 604.278 468.003C604.417 468.867 604.618 469.826 605.526 469.437C606.658 468.948 607.801 468.276 608.665 467.413C609.841 466.233 609.457 465.336 607.81 464.851C607.47 464.75 607.138 464.635 606.798 464.53C606.466 464.424 605.799 464.702 605.991 463.968C606.126 463.465 606.922 463.081 607.09 463.239C608.703 464.765 608.655 463.143 608.962 462.044C609.98 463.038 610.508 464.328 612.02 464.41C613.287 464.477 615.519 462.241 616.066 461.138C616.993 459.267 615.125 459.262 614.573 458.514C614.113 457.885 612.99 459.056 613.229 460.241C613.326 460.72 613.388 461.119 612.951 461.286C612.788 461.349 612.198 460.927 612.202 460.73C612.222 459.31 610.777 460.706 610.575 459.852C610.306 458.71 612.03 459.396 611.948 458.37C611.91 457.842 612.193 457.305 611.914 456.782C611.713 456.403 611.468 455.947 611.814 455.616C613.172 454.311 612.62 453.246 611.626 452.008C610.623 450.761 611.175 449.394 612.716 448.77C614.53 448.041 614.636 447.954 615.226 446.577C614.766 446.505 614.247 446.549 613.887 446.333C613.45 446.064 612.966 445.153 613.234 445.057C614.41 444.658 614.516 443.176 615.706 442.869C616.493 442.667 617.458 442.552 617.343 441.367C617.233 440.259 617.089 439.146 615.654 438.69C616.033 438.335 616.354 437.774 616.705 437.755C618.193 437.664 618.207 436.743 618.154 435.634C618.13 435.155 618.053 434.526 618.759 434.32C620.89 433.706 621.346 431.964 621.505 430.098C621.548 429.556 621.394 429.268 622.114 428.952C623.247 428.453 623.074 426.98 621.893 426.356C621.505 426.155 621.212 425.896 621.514 425.579C622.906 424.12 623.285 422.082 623.842 420.364C624.337 418.843 626.271 417.96 625.705 416.046C625.613 415.73 626.093 415.394 626.429 415.365C626.857 415.332 626.924 415.85 627.001 416.118C627.178 416.728 627.423 417.126 628.109 416.895C628.786 416.67 629.693 416.406 629.641 415.643C629.597 415.015 629.295 414.751 630.202 414.828C630.769 414.876 630.759 414.233 630.965 413.811C631.393 412.947 630.826 410.428 633.202 412.28C633.601 412.592 633.951 412.026 634.1 411.647C634.282 411.191 634.69 410.702 634.028 410.232C632.684 409.277 632.477 407.56 631.484 406.355C631.066 405.852 631.258 405.473 631.863 405.094C632.919 404.436 633.74 403.578 632.751 402.225C632.669 402.11 632.621 401.903 632.665 401.774C633.303 399.625 632.65 398.459 630.471 398.022C629.357 397.802 630.178 397.13 629.929 396.276C630.821 397.293 631.594 397.61 632.525 397.077C632.9 396.861 633.092 396.976 633.293 397.432C633.783 398.526 634.954 398.795 635.852 398.54C636.932 398.229 636.255 397.173 636.217 396.377C636.111 394.127 635.084 392.059 635.065 389.761C635.055 388.629 633.913 388.61 632.967 389.065C632.837 389.109 632.703 389.147 632.573 389.19C632.597 389.051 632.621 388.912 632.641 388.768C633.116 387.473 633.889 386.432 635.175 385.837C635.372 385.808 635.569 385.779 635.765 385.75C635.722 385.131 637.781 383.39 634.959 384.253C634.633 384.354 634.301 384.081 634.311 383.803C634.316 383.591 634.623 383.337 634.853 383.184C635.751 382.594 637.033 382.896 638.967 384.114C638.861 384.901 637.335 384.205 637.637 385.338C637.767 385.827 638.415 386.201 638.765 386.029C639.389 385.721 640.104 385.213 640.349 384.613C640.575 384.052 640.767 383.054 640.124 382.603C638.626 381.548 637.258 380.094 635.213 380.204C634.306 380.252 632.876 379.638 632.957 381.514C632.977 381.927 632.761 381.955 632.386 381.831C631.541 381.548 631.325 382.066 631.335 382.771C631.34 383.265 631.373 383.735 630.701 383.846C630.077 383.951 629.487 383.97 629.065 383.414C628.186 382.253 626.996 381.452 625.815 380.66C623.449 379.072 621.754 379.283 619.743 381.289C619.148 381.879 618.543 382.474 617.876 382.968C615.879 384.441 614.626 384.282 613.345 382.21C612.548 380.914 611.65 381.605 610.561 381.951C611.698 380.583 613.69 380.104 615.145 380.684C616.777 381.337 618.37 380.281 618.198 378.549C618.068 377.254 618.572 376.688 619.681 376.069C621.029 375.316 622.498 374.342 623.266 373.071C624.447 371.113 626.093 370.437 628.114 370.178C630.149 369.914 630.716 368.902 629.617 367.15C628.695 365.687 627.615 364.32 626.564 362.852C627.125 362.238 628.666 363.634 628.69 362.008C628.709 360.453 627.245 361.298 626.535 360.933C626.554 360.257 627.159 360.458 627.447 360.218C627.898 359.839 628.181 359.383 628.052 358.822C627.927 358.294 627.413 358.141 626.929 358.069C625.517 357.858 624.106 357.69 622.844 356.917C622.537 356.73 622.417 356.543 622.431 356.222C622.349 356.169 622.263 356.116 622.181 356.064C622.325 355.9 622.455 355.953 622.57 356.097C623.789 356.73 625.119 356.668 626.429 356.678C627.644 356.687 628.042 356.164 627.577 354.965C626.401 351.952 624.169 350.268 621.044 349.784C619.892 349.601 619.469 349.313 619.589 348.009C619.753 346.214 618.572 345.183 616.455 344.727C615.116 344.439 613.81 343.955 612.461 343.772C611.026 343.576 610.465 342.391 610.743 341.532C611.626 338.783 609.975 337.042 608.698 335.084C606.788 332.163 604.748 329.342 602.938 326.338C601.335 323.681 600.452 320.668 598.551 318.188C598.119 317.621 597.706 317.305 597.073 317.055C594.745 316.139 592.282 315.702 589.897 315.002C588.596 314.618 587.343 314.186 586.652 312.728C586.263 311.908 585.188 311.735 584.276 312.08C582.865 312.613 582.534 311.788 582.534 310.703C582.534 309.36 582.01 307.729 584.041 307.216C584.209 307.172 584.439 306.822 584.415 306.645C583.998 303.829 586.796 302.068 586.772 299.391C586.763 298.532 587.372 298.743 587.929 298.585C589.633 298.11 590.91 296.484 591.006 295.169C591.159 293.106 592.839 292.694 593.684 291.456C593.938 291.082 594.524 290.895 594.313 290.3C594.246 290.113 594.15 290.017 594.039 289.959C594.447 289.911 595.009 289.489 595.484 289.273C596.079 289.009 596.622 288.597 597.226 288.371C598.652 287.834 599.468 287.105 598.585 285.469C598.138 284.639 598.935 283.713 598.566 282.816C598.532 282.734 598.897 281.866 599.43 282.456C601.177 284.394 601.297 281.607 601.302 281.516C601.47 278.724 603.495 277.668 605.65 276.814C606.735 276.382 607.498 275.255 608.953 275.509C609.687 275.639 609.356 274.502 609.826 273.984C610.815 272.885 612.279 272.386 613.182 270.976C613.546 273.298 614.42 271.585 615.102 271.283C616.037 273.01 617.636 273.23 618.941 271.806C619.633 271.048 620.833 270.481 620.252 269.071C620.127 268.764 620.276 268.337 619.805 268.212C618.534 267.862 618.975 267.406 619.719 266.912C620.444 266.432 621.068 266.029 620.396 264.916C620.084 264.398 619.263 263.252 620.775 262.767C621.044 262.681 621.001 262.249 620.837 261.966C620.617 261.582 620.247 261.587 619.887 261.668C618.116 262.062 616.359 262.374 614.501 262.158C613.925 262.091 613.945 262.023 613.786 261.601C613.302 260.301 612.481 260.133 611.857 261.309C611.214 262.513 610.201 262.719 609.097 262.983C608.084 263.223 607.033 262.853 605.991 263.54C605.502 263.866 604.542 263.151 604.33 262.211C604.11 261.227 603.687 260.91 602.804 261.726C601.858 262.604 600.913 262.954 600.51 261.213C600.39 260.699 600.039 260.575 599.583 260.551C598.729 260.498 597.932 260.33 597.442 259.514C597.385 259.418 597.241 259.275 597.174 259.294C595.345 259.836 594.735 258.617 594.087 257.288C593.655 256.401 593.084 257.442 592.542 257.38C592.162 257.336 592.071 257.73 592.196 258.027C592.551 258.862 593.046 257.917 593.286 258.056C593.799 258.344 594.188 258.857 594.682 259.327C592.546 260.685 590.598 262.249 587.924 263.16C590.156 264.139 588.97 265.127 588.126 265.967C587.156 266.936 586.038 267.761 584.982 268.644C584.564 268.989 584.012 269.301 584.497 269.944C585.62 271.436 584.166 272.333 583.412 272.573C580.595 273.475 577.676 274.473 574.801 272.544C573.145 271.436 572.339 267.905 573.611 266.375C574.331 265.506 574.331 264.936 573.726 264.034C572.977 262.911 573.006 261.366 571.94 260.373C571.129 259.615 570.399 258.449 569.459 258.238C568.431 258.008 567.102 258.449 566.324 259.534C566.113 259.831 565.801 259.797 565.513 259.692C564.284 259.231 563.012 259.5 561.769 259.486C558.318 259.457 555.649 258.094 553.609 255.283C551.694 252.649 552.198 250.145 553.652 247.602C553.844 247.266 554.281 247.118 554.027 246.556C553.167 244.657 554.67 243.956 555.904 243.309C557.228 242.613 558.404 242.896 559.263 244.306C559.964 245.453 560.967 245.837 561.995 244.637C563.579 242.79 565.412 241.927 567.836 242.867C568.215 243.016 568.527 242.699 568.739 242.407C569.123 241.879 569.401 241.26 569.843 240.79C571.911 238.597 571.643 235.719 572.171 233.076C572.262 232.62 572.372 232.035 572.694 231.78C574.239 230.547 574.849 228.552 576.908 227.587C578.943 226.633 580.547 224.685 582.601 223.61C584.924 222.392 585.428 220.319 586.201 218.088C586.95 215.92 587.905 213.511 590.535 212.825C590.41 212.034 589.249 211.722 589.59 211.559C590.65 211.055 590.698 209.501 591.73 209.381C593.185 209.218 594.75 208.359 596.175 209.582C596.319 209.707 596.655 209.707 596.857 209.64C599.866 208.666 601.81 210.192 604.191 211.89C606.087 213.243 605.386 214.293 604.983 215.378C604.234 217.383 602.953 219.182 602.17 221.178C601.494 222.886 600.183 223.797 598.825 224.79C597.894 225.472 597.298 226.465 598.009 227.587C598.666 228.623 598.033 229.089 597.322 229.348C596.564 229.626 596.175 230.139 595.791 230.749C595.532 231.157 595.388 231.521 595.998 231.723C596.343 231.833 596.66 231.843 596.492 232.404C595.844 234.539 597.73 233.963 598.354 233.728C599.665 233.239 600.961 233.738 602.31 233.325C601.34 234.457 600.015 235.45 602.055 236.702C602.583 237.024 602.098 237.441 601.724 237.643C601.014 238.022 600.462 238.761 599.468 238.501C598.978 238.372 598.47 238.65 598.374 239.197C598.234 239.994 597.764 240.257 597.03 240.377C595.844 240.569 595.311 241.121 596.046 242.354C596.276 242.738 596.194 243.289 596.372 243.721C596.708 244.551 597.514 245.199 598.095 244.34C599.367 242.474 601.561 242.512 603.222 241.495C603.966 241.039 604.263 240.78 603.754 240.037C603.562 239.758 603.121 239.485 603.433 239.135C603.726 238.799 604.215 238.818 604.575 239.125C605.473 239.902 606.073 239.384 606.337 238.578C606.601 237.767 607.455 237.518 607.724 236.851C608.079 235.978 608.473 234.937 608.833 234.251C610.753 230.59 613.969 228.053 617.573 226.052L617.578 226.062C617.703 225.337 617.986 224.833 618.869 224.92C619.205 224.953 619.796 224.901 619.873 224.714C620.713 222.761 623.209 223.174 624.154 221.941C625.503 220.18 627.212 220.847 628.719 220.477C630.773 219.974 633.241 217.872 633.231 215.824C633.226 214.61 633.721 213.79 634.345 212.907C635.333 211.511 636.577 210.307 637.378 208.767C637.714 208.124 638.146 207.587 639.02 207.591C639.485 207.596 640.066 207.428 640.023 206.805C639.879 204.89 641.621 204.454 642.696 203.777C643.383 203.346 644.045 203.144 644.448 202.329C644.717 201.786 645.327 201.407 645.807 200.99C646.023 200.803 646.536 200.659 646.522 200.553C646.229 198.452 647.967 198.668 649.124 198.227C649.628 198.035 650.18 197.829 650.314 197.238C650.828 194.95 652.33 193.098 653.088 190.92C653.165 190.695 653.175 190.373 653.333 190.258C655.143 188.953 654.423 186.991 654.48 185.326C654.524 184.17 654.989 183.475 655.791 183.019C656.328 182.712 656.684 182.333 657.053 181.896C657.836 180.985 658.493 181.1 659.146 182.102C659.962 183.355 660.389 184.952 662.65 184.444C665.271 183.854 668.18 185.154 670.676 183.359C671.18 183 671.415 183.503 671.755 183.666C673.407 184.448 674.079 184.093 674.626 182.318C675.197 180.471 675.207 179.013 673.066 178.049C672.106 177.617 671.583 176.393 670.724 175.635C670.138 175.117 670.099 174.422 671.083 173.966C672.063 173.51 672.951 172.925 674.117 173.05C675.091 173.155 675.941 172.834 676.805 172.301C677.635 171.793 678.523 171.284 679.618 171.265C680.583 171.251 683.05 167.715 683.05 166.554C683.05 166.026 682.891 165.446 683.055 164.975C683.386 164.002 683.919 163.071 685.215 163.555C685.843 163.79 686.064 163.709 686.645 163.21C688.791 161.363 687.96 159.286 687.571 157.132C687.375 156.038 687.571 154.877 687.615 153.745C687.629 153.337 687.927 153.13 688.301 153.025C689.223 152.771 690.024 153.553 690.855 153.418C692.347 153.178 691.944 154.359 692.184 155.006C692.611 156.148 694.992 157.971 696.279 158.038C696.725 158.062 697.186 158.269 697.483 157.65C697.757 157.069 697.661 156.609 697.296 156.158C696.768 155.5 696.072 155.217 695.045 155.448C695.919 153.366 697.714 152.751 699.355 152.161C701.616 151.346 701.631 151.02 701.712 148.635C701.779 146.616 701.938 144.572 702.067 142.538C702.135 141.492 701.645 140.926 700.911 140.163C699.701 138.906 699.173 137.059 699.106 135.317C699 132.458 698.463 129.81 696.787 127.445C695.218 125.228 694.618 122.407 692.314 120.594C691.776 120.172 692.559 119.203 693.351 118.733C695.621 117.385 698.189 116.329 697.992 112.856C697.949 112.079 699.115 111.153 699.12 109.728C700.229 110.898 701.367 110.951 702.576 110.922C705.811 110.855 709.051 110.855 712.286 110.86C713.962 110.86 715.262 108.888 714.451 107.324C713.904 106.269 713.784 105.156 713.616 104.043C713.506 103.328 713.53 102.532 714.226 102.09C716.39 100.718 716.016 98.8087 716.064 96.5923C716.112 94.4574 716.568 92.193 716.952 90.0294C717.154 88.878 718.008 87.8369 717.634 86.436C717.49 85.8939 717.47 85.3806 716.938 85.1167C716.395 84.8433 716.242 84.3443 716.462 83.9174C717.811 81.3363 716.386 78.8177 716.366 76.275C716.362 75.589 716.227 74.9125 716.851 74.2793C717.691 73.4205 716.707 72.7441 716.333 72.082C715.704 70.9642 715.843 68.8965 716.923 68.5703C718.56 68.0761 718.949 66.9007 719.333 65.5574C719.4 65.3128 719.462 64.7755 720 65.1161C720 63.9167 720 62.7174 720 61.518C718.411 61.0286 717.706 59.5414 716.626 58.486ZM170.044 281.098C170.015 281.084 169.991 281.06 169.967 281.041C170.02 281.031 170.068 281.021 170.12 281.012C170.096 281.041 170.053 281.103 170.044 281.098ZM189.728 216.539C179.485 224.171 169.252 231.814 158.961 239.389C157.722 240.301 157.521 241.097 157.981 242.527C161.893 254.674 165.729 266.84 169.573 279.007C169.775 279.645 170.226 280.273 169.914 281.002C164.701 277.169 159.479 273.346 154.281 269.498C148.977 265.574 143.649 261.683 138.426 257.653C136.957 256.521 136.021 256.406 134.452 257.595C124.463 265.166 114.369 272.602 104.308 280.076C103.838 280.427 103.348 280.758 102.796 281.146C102.619 280.326 102.998 279.755 103.19 279.15C107.058 266.927 110.913 254.703 114.849 242.503C115.314 241.059 115.065 240.277 113.841 239.379C103.747 231.948 93.7002 224.45 83.649 216.961C83.0923 216.548 82.401 216.256 82.0507 215.546C82.6698 215.104 83.3466 215.325 83.9754 215.32C96.3354 215.306 108.695 215.267 121.05 215.354C122.86 215.368 123.647 214.845 124.19 213.099C127.953 200.971 131.831 188.876 135.676 176.772C135.854 176.216 136.05 175.669 136.261 175.055C136.991 175.515 136.953 176.245 137.14 176.825C141.013 188.982 144.897 201.139 148.693 213.32C149.164 214.836 149.841 215.354 151.453 215.344C163.871 215.277 176.293 215.306 188.711 215.306C189.359 215.306 190.007 215.306 190.741 215.306C190.698 216.092 190.112 216.256 189.728 216.539ZM240.502 316.326C238.942 316.791 238.304 317.473 238.376 319.2C238.53 322.899 238.424 326.612 238.424 330.301C237.622 330.488 237.517 329.879 237.272 329.543C235.28 326.775 233.245 324.026 231.368 321.176C230.581 319.987 229.832 319.838 228.57 320.303C225.594 321.392 222.57 322.361 219.551 323.335C218.951 323.527 218.37 323.968 217.491 323.647C219.287 321.114 221.043 318.634 222.81 316.153C225.291 312.666 225.291 312.67 222.757 309.111C221.024 306.678 219.301 304.236 217.501 301.699C218.403 301.363 219.018 301.838 219.637 302.039C222.656 303.008 225.68 303.977 228.656 305.066C229.87 305.513 230.566 305.34 231.31 304.232C233.446 301.06 235.712 297.976 237.934 294.848C238.664 295.27 238.405 295.874 238.41 296.354C238.438 299.588 238.539 302.826 238.376 306.055C238.285 307.844 238.966 308.564 240.594 309.044C244.088 310.075 247.52 311.303 250.981 312.454C250.99 312.594 251 312.733 251.014 312.872C247.51 314.033 244.03 315.271 240.502 316.326ZM240.253 178.404C238.875 178.821 238.342 179.425 238.386 180.913C238.491 184.736 238.424 188.565 238.424 192.441C237.541 192.359 237.392 191.683 237.075 191.242C235.213 188.67 233.269 186.142 231.589 183.455C230.643 181.944 229.722 181.863 228.21 182.409C224.739 183.666 221.211 184.765 217.707 185.926C217.635 185.83 217.563 185.734 217.491 185.638C219.661 182.577 221.744 179.454 224.029 176.489C225.109 175.089 225.027 174.129 223.991 172.776C221.744 169.83 219.671 166.746 217.41 163.551C218.461 163.421 219.181 163.872 219.92 164.107C222.887 165.067 225.858 165.997 228.781 167.072C229.986 167.518 230.619 167.216 231.301 166.213C233.149 163.483 235.093 160.821 237.008 158.139C237.339 157.678 237.714 157.247 238.424 156.359C238.424 160.168 238.39 163.435 238.434 166.703C238.486 171.059 237.8 169.97 241.731 171.342C244.827 172.421 247.947 173.438 251.576 174.657C247.462 176.024 243.882 177.295 240.253 178.404ZM252.363 214.346C253.102 213.66 253.928 213.574 254.657 213.31C257.701 212.216 260.739 211.108 263.806 210.096C264.901 209.736 265.285 209.165 265.237 208.018C265.097 204.55 265.049 201.072 264.997 197.603C264.987 197.032 264.809 196.432 265.256 195.646C267.267 198.375 269.201 201 271.136 203.629C273.387 206.689 273.382 206.689 276.934 205.442C279.958 204.382 282.987 203.322 286.246 202.568C284.134 205.663 282.113 208.829 279.867 211.823C278.777 213.276 278.787 214.245 279.929 215.661C282.253 218.534 284.35 221.59 286.544 224.574C286.448 224.699 286.352 224.829 286.256 224.953C282.67 223.84 279.056 222.804 275.509 221.571C274.025 221.053 273.267 221.413 272.451 222.675C270.387 225.875 268.179 228.979 266.029 232.121C265.808 232.087 265.587 232.049 265.366 232.015C265.366 228.398 265.409 224.786 265.352 221.168C265.299 217.892 265.822 218.621 262.63 217.594C259.285 216.515 255.915 215.469 252.363 214.346ZM271.102 418.411C271.078 418.368 271.054 418.325 271.03 418.277C271.069 418.292 271.112 418.311 271.15 418.325C271.131 418.354 271.117 418.383 271.102 418.411ZM280.539 273.518C277.861 275.62 278.158 274.727 279.214 277.999C280.299 281.357 281.432 284.701 282.536 288.055C282.55 288.103 282.512 288.165 282.421 288.501C280.443 287.081 278.561 285.685 276.627 284.365C274.856 283.156 273.2 280.854 271.313 280.993C269.552 281.122 267.934 283.252 266.269 284.524C264.416 285.934 262.573 287.364 260.729 288.784C260.609 288.721 260.489 288.664 260.369 288.602C261.517 284.778 262.606 280.93 263.84 277.136C264.248 275.883 263.979 275.221 262.913 274.492C259.707 272.295 256.582 269.982 253.424 267.713C253.438 267.545 253.458 267.377 253.472 267.21C254.979 267.21 256.481 267.229 257.989 267.205C260.446 267.162 262.904 267.042 265.361 267.051C266.437 267.056 266.941 266.706 267.243 265.636C268.347 261.726 269.557 257.845 270.809 253.69C271.789 255.437 272.12 257.121 272.701 258.708C273.238 260.167 273.704 261.654 274.203 263.127C275.489 266.936 275.489 266.898 279.589 266.821C282.68 266.763 285.766 266.811 289.212 266.811C286.174 269.153 283.342 271.316 280.539 273.518ZM633.092 383.414C633.121 383.131 633.029 382.723 633.389 382.675C633.668 382.637 633.932 382.953 633.922 383.251C633.908 383.678 633.5 383.5 633.25 383.572C633.231 383.874 633.188 384.167 632.818 384.22C632.741 384.229 632.645 384.138 632.559 384.095C632.741 383.87 632.919 383.644 633.092 383.414ZM629.501 398.017C629.535 398.051 629.564 398.085 629.597 398.118C629.564 398.147 629.525 398.204 629.492 398.204C629.458 398.204 629.429 398.142 629.396 398.109C629.434 398.075 629.468 398.046 629.501 398.017ZM627.154 412.29C627.457 412.136 627.706 412.362 627.913 412.587C628.301 413.01 628.306 413.398 627.903 413.83C627.629 414.122 627.418 414.473 626.861 415.231C626.909 414.252 626.996 413.801 626.938 413.374C626.881 412.962 626.665 412.539 627.154 412.29ZM608.953 441.742C608.919 441.737 608.895 441.679 608.866 441.641C608.9 441.612 608.943 441.559 608.972 441.564C609.005 441.569 609.03 441.626 609.058 441.665C609.02 441.694 608.982 441.746 608.953 441.742ZM612.116 442.241C612.625 442.408 612.85 442.572 612.73 443.066C612.591 443.656 612.15 443.378 611.886 443.253C611.444 443.046 610.997 442.802 610.532 442.984C609.332 443.459 609.649 442.586 609.505 441.742C610.407 442.471 611.276 441.962 612.116 442.241ZM625.719 360.218C625.772 360.218 625.825 360.352 625.93 360.506C625.705 360.506 625.537 360.525 625.378 360.496C625.316 360.487 625.277 360.362 625.225 360.29C625.393 360.261 625.556 360.213 625.719 360.218ZM612.706 354.634C613.671 355.627 614.42 356.817 616.109 355.862C616.513 355.632 617.127 355.857 617.516 356.38C618.946 358.304 621.058 359.254 623.261 359.714C624.821 360.041 623.953 360.511 623.66 361.082C623.881 361.226 624.101 361.365 624.322 361.509C624.5 361.619 624.677 361.729 624.855 361.835C624.581 362.051 624.308 361.94 624.034 361.84C623.799 361.734 623.564 361.633 623.329 361.528C621.754 360.813 620.285 360.002 618.917 358.865C617.425 357.623 615.572 356.774 613.441 357.153C612.711 357.282 612.303 357.09 612.169 356.145C611.943 354.519 610.782 353.77 609.202 353.938C608.473 354.015 607.791 353.852 607.081 353.602C608.694 352.657 611.194 353.07 612.706 354.634ZM591.826 287.57C592.398 287.776 593.602 287.335 593.492 288.381C593.396 289.321 593.506 289.748 593.732 289.892C593.53 289.892 593.314 289.935 593.118 289.892C592.331 289.734 591.798 289.043 591.323 288.443C591.083 288.136 591.404 287.417 591.826 287.57ZM578.459 499.46C578.516 499.431 578.862 499.426 578.665 499.7C578.545 499.868 578.348 499.978 578.185 500.117C578.07 499.988 578.012 499.921 577.955 499.853C578.118 499.719 578.271 499.561 578.459 499.46Z" fill="#F6F6F6"/>
<path d="M490.562 567.085C490.293 566.279 489.87 565.732 488.838 566.058C487.912 566.351 487.278 565.665 486.63 565.142C486.17 564.768 486.29 563.511 485.483 563.933C484.946 564.216 484.11 564.518 483.846 565.209C483.4 566.385 482.728 566.078 481.869 565.747C480.27 565.133 478.768 566.442 477.16 566.102C475.446 568.735 472.979 567.267 470.79 567.248C469.418 567.239 467.824 567.349 467.435 568.697C466.946 570.41 465.966 569.7 465.174 569.508C463.475 569.1 461.459 570.434 461.704 572.137C461.887 573.427 461.469 574.017 460.336 574.3C459.779 574.44 459.405 574.761 459.064 575.212C458.042 576.565 456.635 577.472 455.171 578.258C453.712 579.04 453.242 580.264 454.034 581.837C454.216 582.197 454.144 582.408 453.976 582.586C453.367 583.233 453.664 583.867 453.847 584.577C454.288 586.299 453.674 588.256 455.032 589.777C454.245 592.526 455.738 593.514 458.109 594.277C460.739 595.122 463.159 596.661 466.106 596.196C467.459 595.985 468.294 596.422 468.002 598C469.082 598 470.162 598 471.242 598C471.208 597.573 471.102 597.151 471.837 597.28C472.59 597.419 472.989 596.892 472.989 596.239C472.989 595.477 472.298 594.349 473.67 594.344C474.53 594.344 475.13 593.361 476.171 594.028C477.184 594.675 477.928 594.138 478.197 592.896C478.677 590.684 480.006 589.355 482.363 589.216C482.925 589.182 485.31 586.779 485.133 586.39C484.389 584.764 485.133 583.353 485.44 581.78C486.232 577.716 488.31 574.718 491.766 572.573C492.05 572.396 492.208 572.194 492.098 571.849C491.579 570.266 491.09 568.668 490.562 567.085Z" fill="#F6F6F6"/>
</svg>
