<svg width="28" height="37" viewBox="0 0 28 37" fill="none" xmlns="http://www.w3.org/2000/svg">
<path d="M16.9167 11.6568C17.2388 11.6568 17.5 11.3957 17.5 11.0735C17.5 10.7513 17.2388 10.4902 16.9167 10.4902C16.5945 10.4902 16.3333 10.7513 16.3333 11.0735C16.3333 11.3957 16.5945 11.6568 16.9167 11.6568Z" fill="#AAAAAA"/>
<path d="M11.0833 11.6568C11.4055 11.6568 11.6667 11.3957 11.6667 11.0735C11.6667 10.7513 11.4055 10.4902 11.0833 10.4902C10.7612 10.4902 10.5 10.7513 10.5 11.0735C10.5 11.3957 10.7612 11.6568 11.0833 11.6568Z" fill="#AAAAAA"/>
<path d="M14 16.3235C15.6082 16.3235 16.9167 15.0151 16.9167 13.4068H15.75C15.75 14.3717 14.9648 15.1568 14 15.1568C13.0352 15.1568 12.25 14.3717 12.25 13.4068H11.0833C11.0833 15.0151 12.3918 16.3235 14 16.3235Z" fill="#AAAAAA"/>
<path d="M25.6667 18.6569C25.2414 18.6569 24.815 18.6995 24.3967 18.7829L22.5616 19.1498C21.8872 19.2851 21.182 19.2682 20.5135 19.1008L18.9058 18.6989L18.8271 18.4621C20.7556 17.8881 22.1667 16.1019 22.1667 13.9902C22.1667 11.7858 21.2847 9.78613 19.8602 8.31555L20.7381 7.14539C21.1429 6.60522 21.6959 6.2068 22.3364 5.9933C22.673 5.88072 23.0247 5.82355 23.3806 5.82355H23.9423C24.8932 5.82355 25.6667 5.05005 25.6667 4.09922C25.6667 2.79839 25.1603 1.57514 24.2404 0.655802C23.5212 -0.0646145 22.3405 -0.211031 21.4655 0.313969C19.7243 1.3593 18.3242 2.8713 17.4166 4.68722L16.6273 6.26572C15.8013 5.98339 14.9199 5.82355 14 5.82355C13.0801 5.82355 12.1987 5.98339 11.3732 6.26514L10.584 4.68664C9.67575 2.87072 8.27633 1.35872 6.5345 0.313385C5.66067 -0.209864 4.48 -0.0640312 3.76017 0.655219C2.83967 1.57514 2.33333 2.79839 2.33333 4.09922C2.33333 5.05005 3.10683 5.82355 4.05767 5.82355H4.61942C4.97525 5.82355 5.327 5.88072 5.66358 5.9933C6.30467 6.2068 6.85708 6.60522 7.26192 7.14539L8.13983 8.31555C6.71533 9.78613 5.83333 11.7858 5.83333 13.9902C5.83333 16.1019 7.24442 17.8881 9.17233 18.4621L9.09358 18.6989L7.48533 19.1008C6.818 19.2682 6.11275 19.2851 5.43783 19.1498L3.60267 18.7829C3.185 18.6995 2.75858 18.6569 2.33333 18.6569C1.0465 18.6569 0 19.7034 0 20.9902C0 22.2771 1.0465 23.3236 2.33333 23.3236H2.43192C4.35517 23.3236 6.24633 22.8855 7.973 22.0612L7.84583 22.4433C7.67142 22.9636 7.58333 23.5061 7.58333 24.0562C7.58333 25.2672 8.00917 26.3796 8.71675 27.2552C8.08558 28.0818 7.11258 28.5735 6.06375 28.5735C4.65033 28.5735 3.5 29.7233 3.5 31.1373V35.4458L4.50917 35.6984C5.72658 36.0023 6.98075 36.1569 8.23667 36.1569C10.2002 36.1569 12.1199 35.7871 13.9428 35.0579L14 35.0351L14.0572 35.0579C15.8801 35.7871 17.7998 36.1569 19.7633 36.1569C21.0192 36.1569 22.2734 36.0023 23.4902 35.6978L24.5 35.4458V31.1373C24.5 29.7233 23.3497 28.5735 21.9362 28.5735C20.8874 28.5735 19.9138 28.0818 19.2827 27.2558C19.9908 26.3796 20.4167 25.2672 20.4167 24.0562C20.4167 23.5061 20.3286 22.9636 20.1547 22.4433L20.0276 22.0612C21.7537 22.886 23.6454 23.3236 25.5681 23.3236H25.6667C26.9535 23.3236 28 22.2771 28 20.9902C28 19.7034 26.9535 18.6569 25.6667 18.6569ZM22.0652 1.31439C22.491 1.05947 23.0656 1.13005 23.415 1.48064C24.1045 2.16955 24.5 3.12447 24.5 4.09922C24.5 4.40664 24.2497 4.65689 23.9423 4.65689H23.3806C23.3497 4.65689 23.3193 4.66389 23.2878 4.66447C23.0807 3.2318 22.1427 2.2588 21.4474 1.72097C21.6481 1.57864 21.8528 1.44155 22.0652 1.31439ZM20.51 2.48222C21.0321 2.84272 21.9613 3.64189 22.1357 4.84472C22.0797 4.86105 22.022 4.86805 21.9672 4.88614C21.5629 5.02088 21.1884 5.21514 20.8437 5.45255C20.5987 4.71814 20.0777 4.09864 19.3795 3.7358C19.7196 3.28547 20.0958 2.86489 20.51 2.48222ZM18.4602 5.20872C18.543 5.04305 18.6334 4.88205 18.7256 4.72164C19.3923 5.0133 19.8333 5.6678 19.8333 6.40689H19.838C19.8275 6.4203 19.8152 6.43139 19.8047 6.4448L18.9858 7.5368C18.5856 7.22705 18.1574 6.95347 17.7036 6.7213L18.4602 5.20872ZM10.2964 6.72072C9.84258 6.95289 9.41442 7.22647 9.01425 7.53622L8.19525 6.44422C8.18533 6.4308 8.1725 6.41972 8.162 6.4063H8.16667C8.16667 5.66722 8.60767 5.01214 9.275 4.72105C9.36717 4.88089 9.45758 5.04189 9.54042 5.20755L10.2964 6.72072ZM4.05767 4.65689C3.75025 4.65689 3.5 4.40664 3.5 4.09922C3.5 3.12447 3.8955 2.16955 4.58442 1.48064C4.93442 1.13005 5.509 1.05947 5.93367 1.31439C6.146 1.44214 6.35133 1.57864 6.552 1.72155C5.85667 2.2588 4.91867 3.2318 4.71158 4.66447C4.68067 4.66389 4.65033 4.65689 4.61942 4.65689H4.05767ZM6.03283 4.88614C5.97742 4.86747 5.91967 4.86105 5.86425 4.84472C6.03867 3.64189 6.96792 2.84272 7.49 2.48222C7.90417 2.86489 8.28042 3.28547 8.6205 3.7358C7.92225 4.09864 7.40133 4.71814 7.15633 5.45255C6.81158 5.21514 6.4365 5.02088 6.03283 4.88614ZM7 13.9902C7 10.1303 10.1401 6.99022 14 6.99022C17.8599 6.99022 21 10.1303 21 13.9902C21 15.9205 19.4303 17.4902 17.5 17.4902H10.5C8.56975 17.4902 7 15.9205 7 13.9902ZM10.5 18.6569H17.5C17.5543 18.6569 17.6068 18.6505 17.6604 18.6487L19.0482 22.8131C19.1823 23.2139 19.25 23.6321 19.25 24.0562C19.25 25.1541 18.7967 26.1475 18.0687 26.8621C17.9976 24.6028 17.6033 22.3727 16.8869 20.2225L16.7539 19.8236H11.2467L11.1137 20.2225C10.3973 22.3727 10.0024 24.6028 9.93183 26.8621C9.20325 26.1475 8.75 25.1546 8.75 24.0562C8.75 23.6321 8.81767 23.2139 8.95183 22.8126L10.3396 18.6487C10.3933 18.6505 10.4458 18.6569 10.5 18.6569ZM12.6834 27.9902C12.1135 27.9902 11.5728 27.8654 11.0833 27.6466V27.5965C11.0833 25.3518 11.4222 23.1316 12.0913 20.9902H15.9092C16.5777 23.1311 16.9167 25.3518 16.9167 27.5965V27.6466C16.4272 27.8654 15.8865 27.9902 15.3166 27.9902H12.6834ZM8.41225 20.5125C6.60392 21.5881 4.53658 22.1569 2.43192 22.1569H2.33333C1.68992 22.1569 1.16667 21.6336 1.16667 20.9902C1.16667 20.3468 1.68992 19.8236 2.33333 19.8236C2.68158 19.8236 3.03158 19.8585 3.374 19.9268L5.20917 20.2937C6.05208 20.4623 6.93525 20.4407 7.76883 20.233L8.65667 20.0114L8.51842 20.4256L8.41225 20.5125ZM4.79267 34.5661L4.66667 34.5346V33.4601C5.81175 33.697 6.98308 33.8236 8.15675 33.8236C9.16942 33.8236 10.1885 33.7337 11.1848 33.5564L10.9807 32.4078C8.89408 32.7782 6.727 32.7281 4.66608 32.2707V31.1373C4.66608 30.4571 5.1555 29.8901 5.80067 29.7671C6.51992 30.036 7 30.7179 7 31.4902H8.16667C8.16667 30.7465 7.88842 30.057 7.42467 29.522C7.6895 29.438 7.9485 29.3383 8.19233 29.2076C8.87833 29.4917 9.33333 30.1556 9.33333 30.9069H10.5C10.5 29.9065 10.0059 28.9994 9.21725 28.4458C9.33625 28.3291 9.44942 28.2066 9.55617 28.076C10.4207 28.7509 11.5045 29.1569 12.6834 29.1569H13.4167V31.7673C12.985 31.9172 12.5481 32.0543 12.1071 32.1663L12.3929 33.2968C12.7365 33.2099 13.0777 33.109 13.4167 33.0005V34.012C10.6791 35.0841 7.64225 35.279 4.79267 34.5661ZM23.2067 34.5661C20.3589 35.2795 17.3227 35.0812 14.5833 34.0079V33.0022C16.2779 33.5471 18.0431 33.8236 19.8432 33.8236C21.0175 33.8236 22.1882 33.697 23.3333 33.4607V34.5352L23.2067 34.5661ZM23.3333 31.1373V32.2684C20.4365 32.9112 17.3757 32.7315 14.5833 31.7632V29.1569H15.3166C16.4955 29.1569 17.5793 28.7509 18.4444 28.0765C18.5506 28.2072 18.6643 28.3297 18.7833 28.4464C17.9941 28.9994 17.5 29.9065 17.5 30.9069H18.6667C18.6667 30.1556 19.1222 29.4911 19.8077 29.2076C20.0515 29.3383 20.3105 29.438 20.5753 29.522C20.1116 30.057 19.8333 30.7465 19.8333 31.4902H21C21 30.7179 21.4807 30.0354 22.1987 29.7665C22.8439 29.8901 23.3333 30.4566 23.3333 31.1373ZM25.6667 22.1569H25.5681C23.4482 22.1569 21.3675 21.5806 19.5504 20.4903L19.495 20.4652L19.3433 20.0108L20.2306 20.2325C21.0648 20.4407 21.9467 20.4623 22.7908 20.2931L24.626 19.9262C24.9684 19.8585 25.3184 19.8236 25.6667 19.8236C26.3101 19.8236 26.8333 20.3468 26.8333 20.9902C26.8333 21.6336 26.3101 22.1569 25.6667 22.1569Z" fill="#AAAAAA"/>
</svg>
