<svg width="31" height="34" viewBox="0 0 31 34" fill="none" xmlns="http://www.w3.org/2000/svg">
<path d="M30.2155 25.8615C30.2155 25.8388 30.2222 25.8199 30.2222 25.7934V7.58962C30.2222 7.58205 30.2222 7.57448 30.2189 7.56691C30.2189 7.55556 30.2189 7.54041 30.2189 7.52906C30.2189 7.49499 30.2121 7.46092 30.2088 7.42685C30.2054 7.389 30.2021 7.35115 30.1954 7.31329C30.1886 7.28301 30.1786 7.25273 30.1685 7.22245C30.1551 7.18081 30.145 7.13917 30.1316 7.10131C30.1282 7.09374 30.1282 7.08996 30.1248 7.08239C30.1148 7.05967 30.1013 7.03696 30.0879 7.01425C30.0711 6.9764 30.051 6.94233 30.0308 6.90826C30.0107 6.87798 29.9905 6.85148 29.9704 6.82498C29.9502 6.79849 29.9267 6.7682 29.9032 6.74171C29.8797 6.71521 29.8495 6.6925 29.8226 6.66978C29.7991 6.64707 29.7756 6.62814 29.7487 6.60922C29.7152 6.58651 29.6816 6.56758 29.648 6.54865C29.6279 6.5373 29.6077 6.52216 29.5876 6.51458L15.3831 0.0794923C15.363 0.0719216 15.3428 0.0681363 15.3227 0.0605656C15.2824 0.0454242 15.2421 0.0302828 15.2018 0.0227121C15.1716 0.0151414 15.1413 0.0151414 15.1111 0.011356C15.0742 0.00378535 15.0406 0 15.0037 0C14.9701 0 14.9365 0.00378535 14.9063 0.011356C14.8727 0.0151414 14.8425 0.0151414 14.8089 0.0227121C14.7719 0.0302828 14.735 0.0454242 14.6981 0.0605656C14.6746 0.0681363 14.6511 0.0719216 14.6276 0.0832777L8.58983 2.85037C8.54953 2.86551 8.50923 2.88444 8.4723 2.90336L0.627951 6.50701C0.624593 6.50701 0.624593 6.5108 0.624593 6.5108C0.601086 6.52216 0.57758 6.5373 0.554074 6.55244C0.523852 6.56758 0.496988 6.58272 0.470123 6.60543C0.463407 6.60922 0.456691 6.613 0.446617 6.62057C0.426469 6.63572 0.409679 6.65464 0.392889 6.66978C0.366025 6.6925 0.339161 6.71521 0.315654 6.74171C0.292148 6.7682 0.268642 6.79849 0.248494 6.82498C0.228346 6.85148 0.208198 6.87798 0.188049 6.90826C0.184691 6.91583 0.177975 6.91962 0.174617 6.92719C0.161185 6.9499 0.151111 6.98018 0.137679 7.00289C0.134321 7.00668 0.134321 7.01425 0.130963 7.01804C0.120889 7.04075 0.107457 7.05967 0.0973827 7.08239C0.0940247 7.08617 0.0940247 7.09374 0.0940247 7.09753C0.0772346 7.12781 0.0671605 7.16188 0.0570864 7.19216C0.0537284 7.20352 0.0503704 7.21487 0.0470123 7.22245C0.0402963 7.25273 0.0268642 7.28301 0.0235062 7.30951C0.0235062 7.31329 0.0201481 7.31708 0.0201481 7.32465C0.0167901 7.33979 0.0167901 7.35872 0.0167901 7.37386C0.0134321 7.39279 0.0134321 7.40793 0.0100741 7.42685C0.00671605 7.46471 0 7.49878 0 7.53284C0 7.54041 0 7.54798 0 7.55556V7.55934V25.7934C0 25.8047 0.00335802 25.8123 0.00335802 25.8236C-0.0100741 26.2779 0.214914 26.7132 0.604444 26.9063L14.8122 33.9016C14.819 33.9054 14.8257 33.9054 14.8324 33.9092C14.8828 33.9319 14.9331 33.9508 14.9869 33.9659C15.0037 33.9697 15.0204 33.9735 15.0372 33.9773C15.0943 33.9886 15.1548 33.9962 15.2152 34C15.2152 34 15.2152 34 15.2186 34C15.2186 34 15.2186 34 15.2219 34C15.232 34 15.2454 33.9962 15.2555 33.9962C15.2656 33.9962 15.2723 34 15.2824 34C15.504 34 15.7055 33.9167 15.8734 33.7804L29.6245 26.982C30.0207 26.7776 30.2457 26.3233 30.2155 25.8615ZM8.87862 5.17079L20.1649 11.0873L15.2119 13.7067L3.536 7.62369L8.87862 5.17079ZM15.0104 2.35827L26.6896 7.63883L22.5458 9.82676L11.4274 4.0049L15.0104 2.35827ZM2.01481 9.33467L14.2716 15.7168V31.1534L2.01481 25.1234V9.33467ZM16.2864 15.6486L28.2074 9.34603V25.1953L16.2864 31.0891V15.6486Z" fill="#CCCCCC"/>
</svg>
