<svg width="48" height="62" viewBox="0 0 48 62" fill="none" xmlns="http://www.w3.org/2000/svg">
<path fill-rule="evenodd" clip-rule="evenodd" d="M41.823 32.1992C42.54 32.0562 43.271 31.9832 44 31.9832C46.206 31.9832 48 33.7772 48 35.9832C48 38.1892 46.206 39.9832 44 39.9832H43.831C40.535 39.9832 37.292 39.2332 34.333 37.8192L34.551 38.4742C34.849 39.3662 35 40.2962 35 41.2392C35 43.3152 34.27 45.2222 33.056 46.7242C34.138 48.1402 35.807 48.9832 37.605 48.9832C40.028 48.9832 42 50.9542 42 53.3782V60.7642L40.269 61.1962C38.183 61.7182 36.033 61.9832 33.88 61.9832C30.514 61.9832 27.223 61.3492 24.098 60.0992L24 60.0602L23.902 60.0992C20.777 61.3492 17.486 61.9832 14.12 61.9832C11.967 61.9832 9.817 61.7182 7.73 61.1972L6 60.7642V53.3782C6 50.9542 7.972 48.9832 10.395 48.9832C12.193 48.9832 13.861 48.1402 14.943 46.7232C13.73 45.2222 13 43.3152 13 41.2392C13 40.2962 13.151 39.3662 13.45 38.4742L13.668 37.8192C10.708 39.2322 7.466 39.9832 4.169 39.9832H4C1.794 39.9832 0 38.1892 0 35.9832C0 33.7772 1.794 31.9832 4 31.9832C4.729 31.9832 5.46 32.0562 6.176 32.1992L9.322 32.8282C10.479 33.0602 11.688 33.0312 12.832 32.7442L15.589 32.0552L15.724 31.6492C12.419 30.6652 10 27.6032 10 23.9832C10 20.2042 11.512 16.7762 13.954 14.2552L12.449 12.2492C11.755 11.3232 10.808 10.6402 9.709 10.2742C9.132 10.0812 8.529 9.98323 7.919 9.98323H6.956C5.326 9.98323 4 8.65723 4 7.02723C4 4.79723 4.868 2.70023 6.446 1.12323C7.68 -0.109768 9.704 -0.359768 11.202 0.537232C14.188 2.32923 16.587 4.92123 18.144 8.03423L19.497 10.7402C20.912 10.2572 22.423 9.98323 24 9.98323C25.577 9.98323 27.088 10.2572 28.504 10.7412L29.857 8.03523C31.413 4.92223 33.813 2.33023 36.798 0.538232C38.298 -0.361768 40.322 -0.110768 41.555 1.12423C43.132 2.70023 44 4.79723 44 7.02723C44 8.65723 42.674 9.98323 41.044 9.98323H40.081C39.471 9.98323 38.868 10.0812 38.291 10.2742C37.193 10.6402 36.245 11.3232 35.551 12.2492L34.046 14.2552C36.488 16.7762 38 20.2042 38 23.9832C38 27.6032 35.581 30.6652 32.275 31.6492L32.41 32.0552L35.166 32.7442C36.312 33.0312 37.521 33.0602 38.677 32.8282L41.823 32.1992ZM40.14 2.53823C39.541 1.93723 38.556 1.81623 37.826 2.25323C37.462 2.47123 37.111 2.70623 36.767 2.95023C37.959 3.87223 39.567 5.54023 39.922 7.99623C39.948 7.99575 39.9735 7.99272 39.9989 7.98971C40.0263 7.98646 40.0535 7.98323 40.081 7.98323H41.044C41.571 7.98323 42 7.55423 42 7.02723C42 5.35623 41.322 3.71923 40.14 2.53823ZM37.947 8.30523C37.648 6.24323 36.055 4.87323 35.16 4.25523C34.45 4.91123 33.805 5.63223 33.222 6.40423C34.419 7.02623 35.312 8.08823 35.732 9.34723C36.323 8.94023 36.965 8.60723 37.658 8.37623C37.7094 8.35929 37.7623 8.34802 37.8153 8.33671C37.8593 8.32733 37.9035 8.31793 37.947 8.30523ZM32.101 8.09423C31.943 8.36923 31.788 8.64523 31.646 8.92923L30.349 11.5222C31.127 11.9202 31.861 12.3892 32.547 12.9202L33.951 11.0482C33.96 11.0367 33.9697 11.0262 33.9795 11.0157C33.9893 11.0052 33.999 10.9947 34.008 10.9832H34C34 9.71623 33.244 8.59423 32.101 8.09423ZM15.453 12.9192C16.139 12.3882 16.873 11.9192 17.651 11.5212L16.355 8.92723C16.213 8.64323 16.058 8.36723 15.9 8.09323C14.756 8.59223 14 9.71523 14 10.9822H13.992C14.0005 10.993 14.0098 11.003 14.0191 11.0128C14.0296 11.024 14.04 11.035 14.049 11.0472L15.453 12.9192ZM6 7.02723C6 7.55423 6.429 7.98323 6.956 7.98323H7.919C7.94664 7.98323 7.97401 7.9865 8.00139 7.98976C8.02651 7.99276 8.05164 7.99575 8.077 7.99623C8.432 5.54023 10.04 3.87223 11.232 2.95123C10.888 2.70623 10.536 2.47223 10.172 2.25323C9.444 1.81623 8.459 1.93723 7.859 2.53823C6.678 3.71923 6 5.35623 6 7.02723ZM10.1828 8.33614C10.2362 8.34737 10.2897 8.35862 10.342 8.37623C11.034 8.60723 11.677 8.94023 12.268 9.34723C12.688 8.08823 13.581 7.02623 14.778 6.40423C14.195 5.63223 13.55 4.91123 12.84 4.25523C11.945 4.87323 10.352 6.24323 10.053 8.30523C10.0957 8.31782 10.1392 8.32697 10.1828 8.33614ZM24 11.9832C17.383 11.9832 12 17.3662 12 23.9832C12 27.2922 14.691 29.9832 18 29.9832H30C33.309 29.9832 36 27.2922 36 23.9832C36 17.3662 30.617 11.9832 24 11.9832ZM30.1596 31.9759C30.1068 31.9795 30.0539 31.9832 30 31.9832H18C17.9461 31.9832 17.8932 31.9795 17.8404 31.9759C17.802 31.9732 17.7637 31.9705 17.725 31.9692L15.346 39.1072C15.116 39.7952 15 40.5122 15 41.2392C15 43.1222 15.777 44.8242 17.026 46.0492C17.147 42.1762 17.824 38.3532 19.052 34.6672L19.28 33.9832H28.721L28.949 34.6672C30.177 38.3532 30.853 42.1762 30.975 46.0492C32.223 44.8242 33 43.1212 33 41.2392C33 40.5122 32.884 39.7952 32.654 39.1082L30.275 31.9692C30.2363 31.9705 30.198 31.9732 30.1596 31.9759ZM19 47.3942C19.839 47.7692 20.766 47.9832 21.743 47.9832H26.257C27.234 47.9832 28.161 47.7692 29 47.3942V47.3082C29 43.4602 28.419 39.6532 27.273 35.9832H20.728C19.581 39.6542 19 43.4602 19 47.3082V47.3942ZM4.169 37.9832C7.777 37.9832 11.321 37.0082 14.421 35.1642L14.603 35.0152L14.84 34.3052L13.318 34.6852C11.889 35.0412 10.375 35.0782 8.93 34.7892L5.784 34.1602C5.197 34.0432 4.597 33.9832 4 33.9832C2.897 33.9832 2 34.8802 2 35.9832C2 37.0862 2.897 37.9832 4 37.9832H4.169ZM8 59.2022L8.216 59.2562C13.101 60.4782 18.307 60.1442 23 58.3062V56.5722C22.419 56.7582 21.834 56.9312 21.245 57.0802L20.755 55.1422C21.511 54.9502 22.26 54.7152 23 54.4582V49.9832H21.743C19.722 49.9832 17.864 49.2872 16.382 48.1302C16.199 48.3542 16.005 48.5642 15.801 48.7642C17.153 49.7132 18 51.2682 18 52.9832H16C16 51.6952 15.22 50.5572 14.044 50.0702C13.626 50.2942 13.182 50.4652 12.728 50.6092C13.523 51.5262 14 52.7082 14 53.9832H12C12 52.6592 11.177 51.4902 9.944 51.0292C8.838 51.2402 7.999 52.2122 7.999 53.3782V55.3212C11.532 56.1052 15.247 56.1912 18.824 55.5562L19.174 57.5252C17.466 57.8292 15.719 57.9832 13.983 57.9832C11.971 57.9832 9.963 57.7662 8 57.3602V59.2022ZM25 58.2992C29.696 60.1392 34.901 60.4792 39.783 59.2562L40 59.2032V57.3612C38.037 57.7662 36.03 57.9832 34.017 57.9832C30.931 57.9832 27.905 57.5092 25 56.5752V58.2992ZM40 55.3172V53.3782C40 52.2112 39.161 51.2402 38.055 51.0282C36.824 51.4892 36 52.6592 36 53.9832H34C34 52.7082 34.477 51.5262 35.272 50.6092C34.818 50.4652 34.374 50.2942 33.956 50.0702C32.781 50.5562 32 51.6952 32 52.9832H30C30 51.2682 30.847 49.7132 32.2 48.7652C31.996 48.5652 31.801 48.3552 31.619 48.1312C30.136 49.2872 28.278 49.9832 26.257 49.9832H25V54.4512C29.787 56.1112 35.034 56.4192 40 55.3172ZM43.831 37.9832H44C45.103 37.9832 46 37.0862 46 35.9832C46 34.8802 45.103 33.9832 44 33.9832C43.403 33.9832 42.803 34.0432 42.216 34.1592L39.07 34.7882C37.623 35.0782 36.111 35.0412 34.681 34.6842L33.16 34.3042L33.42 35.0832L33.515 35.1262C36.63 36.9952 40.197 37.9832 43.831 37.9832ZM20 18.9832C20 19.5354 19.5523 19.9832 19 19.9832C18.4477 19.9832 18 19.5354 18 18.9832C18 18.4309 18.4477 17.9832 19 17.9832C19.5523 17.9832 20 18.4309 20 18.9832ZM30 18.9832C30 19.5354 29.5523 19.9832 29 19.9832C28.4477 19.9832 28 19.5354 28 18.9832C28 18.4309 28.4477 17.9832 29 17.9832C29.5523 17.9832 30 18.4309 30 18.9832ZM24 27.9832C26.757 27.9832 29 25.7402 29 22.9832H27C27 24.6372 25.654 25.9832 24 25.9832C22.346 25.9832 21 24.6372 21 22.9832H19C19 25.7402 21.243 27.9832 24 27.9832Z" fill="#AAAAAA"/>
</svg>
