<svg width="84" height="84" viewBox="0 0 84 84" fill="none" xmlns="http://www.w3.org/2000/svg">
<path d="M82.0616 78.1578C79.7299 78.2402 77.3991 78.3217 75.0675 78.4042C69.6998 78.5931 64.3313 78.7821 58.9637 78.971C52.9979 79.1813 47.0321 79.3906 41.0672 79.6009C36.943 79.7463 32.8187 79.8908 28.6954 80.0362C28.0991 80.0575 27.4612 80.1464 26.8649 80.1001C25.5616 79.9982 24.2582 79.8973 22.9548 79.7954C17.3232 79.3564 11.6925 78.9182 6.06086 78.4792C4.68733 78.3717 3.31381 78.2652 1.93936 78.1578C2.58551 78.8062 3.23166 79.4545 3.8778 80.1029C3.8778 76.9472 3.8778 73.7914 3.8778 70.6356C3.8778 64.6918 3.8778 58.748 3.8778 52.8042C3.8778 49.3576 3.8778 45.911 3.8778 42.4644C3.8778 42.4523 3.8778 42.4403 3.8778 42.4282C3.23166 43.0766 2.58551 43.725 1.93936 44.3734C5.96117 43.8982 9.98204 43.424 14.0038 42.9488C18.2878 42.4431 22.5718 41.9373 26.8566 41.4316C26.9748 41.4177 27.1059 41.4538 27.2222 41.4686C27.6339 41.5196 28.0455 41.5705 28.4563 41.6215C30.0504 41.8188 31.6446 42.0161 33.2396 42.2133C38.4688 42.8608 43.6971 43.5083 48.9262 44.1548C54.8837 44.8921 60.8421 45.6294 66.7996 46.3676C71.0965 46.8993 75.3933 47.431 79.6902 47.9636C80.4803 48.0617 81.2705 48.159 82.0606 48.2572C81.4145 47.6088 80.7683 46.9604 80.1222 46.312C80.1222 49.7179 80.1222 53.1238 80.1222 56.5296C80.1222 62.3669 80.1222 68.2033 80.1222 74.0406C80.1222 76.0616 80.1222 78.0827 80.1222 80.1029C80.1222 81.1635 81.0037 82.0481 82.0606 82.0481C83.1175 82.0481 83.9991 81.1635 83.9991 80.1029C83.9991 76.6971 83.9991 73.2912 83.9991 69.8853C83.9991 64.0481 83.9991 58.2117 83.9991 52.3744C83.9991 50.3533 83.9991 48.3322 83.9991 46.312C83.9991 45.1533 83.1092 44.4966 82.0606 44.3669C79.7585 44.0816 77.4564 43.7973 75.1543 43.512C69.8411 42.8543 64.5279 42.1967 59.2147 41.539C53.2803 40.8045 47.3459 40.07 41.4115 39.3355C37.2457 38.8195 33.079 38.3036 28.9132 37.7886C28.2403 37.7052 27.5674 37.6219 26.8936 37.5385C26.6259 37.5052 26.2797 37.6098 26.0148 37.6413C25.1471 37.7441 24.2794 37.846 23.4117 37.9489C17.8078 38.6102 12.2039 39.2715 6.59993 39.9329C5.04641 40.1163 3.49196 40.2997 1.93844 40.4831C0.889836 40.6072 0 41.2741 0 42.4282C0 45.584 0 48.7398 0 51.8955C0 57.8393 0 63.7831 0 69.727C0 73.1736 0 76.6202 0 80.0668C0 80.0788 0 80.0909 0 80.1029C0 81.2255 0.885221 81.9656 1.93844 82.0481C5.98609 82.363 10.0328 82.6788 14.0805 82.9938C18.3349 83.3254 22.5893 83.657 26.8437 83.9876C27.3902 84.0303 27.9726 83.9506 28.5191 83.9311C30.152 83.8737 31.7858 83.8163 33.4187 83.7589C38.7217 83.5727 44.0247 83.3856 49.3278 83.1994C55.3139 82.9891 61.299 82.778 67.2851 82.5677C71.5146 82.4186 75.745 82.2704 79.9745 82.1212C80.6705 82.0962 81.3665 82.0721 82.0616 82.0481C83.1175 82.011 84 81.1913 84 80.1029C84 79.0701 83.1185 78.1207 82.0616 78.1578Z" fill="#FFB800"/>
<path d="M28.8431 81.9962C28.8421 79.1072 28.8412 76.2182 28.8403 73.3292C28.8385 67.4354 28.8366 61.5407 28.8348 55.6469C28.8329 50.9072 28.832 46.1676 28.8301 41.427C28.8301 40.7786 28.8301 40.1302 28.8292 39.4818C28.8292 38.4213 27.9477 37.5367 26.8908 37.5367C25.8339 37.5367 24.9523 38.4213 24.9523 39.4818C24.9533 42.3708 24.9542 45.2598 24.9551 48.1488C24.957 54.0426 24.9588 59.9373 24.9606 65.8311C24.9625 70.5708 24.9634 75.3105 24.9653 80.051C24.9653 80.6994 24.9653 81.3478 24.9662 81.9962C24.9662 83.0568 25.8477 83.9413 26.9046 83.9413C27.9615 83.9413 28.844 83.0558 28.8431 81.9962Z" fill="#FFB800"/>
<path d="M15.586 80.7448C15.586 77.6974 15.586 74.651 15.586 71.6036C15.586 65.657 15.586 59.7104 15.586 53.7638C15.586 49.7105 15.586 45.6572 15.586 41.6029C15.586 41.4408 15.586 41.2788 15.586 41.1167C15.586 40.0561 14.7045 39.1715 13.6475 39.1715C12.5906 39.1715 11.7091 40.0561 11.7091 41.1167C11.7091 44.1641 11.7091 47.2105 11.7091 50.2579C11.7091 56.2045 11.7091 62.1511 11.7091 68.0977C11.7091 72.151 11.7091 76.2052 11.7091 80.2585C11.7091 80.4206 11.7091 80.5827 11.7091 80.7448C11.7091 81.8054 12.5906 82.69 13.6475 82.69C14.7045 82.69 15.586 81.8054 15.586 80.7448Z" fill="#FFB800"/>
<path d="M38.827 72.6706C38.827 68.4459 38.827 64.2213 38.827 59.9966C38.827 56.4796 38.827 52.9626 38.827 49.4456C38.827 48.385 37.9454 47.5004 36.8885 47.5004C35.8316 47.5004 34.9501 48.385 34.9501 49.4456C34.9501 53.6702 34.9501 57.8949 34.9501 62.1196C34.9501 65.6366 34.9501 69.1536 34.9501 72.6706C34.9501 73.7312 35.8316 74.6157 36.8885 74.6157C37.9454 74.6157 38.827 73.7312 38.827 72.6706Z" fill="#FFB800"/>
<path d="M47.8425 72.4844C47.8425 68.1403 47.8425 63.7961 47.8425 59.452C47.8425 56.4898 47.8425 53.5276 47.8425 50.5654C47.8425 49.5049 46.961 48.6203 45.9041 48.6203C44.8472 48.6203 43.9657 49.5049 43.9657 50.5654C43.9657 54.9096 43.9657 59.2538 43.9657 63.5979C43.9657 66.5601 43.9657 69.5223 43.9657 72.4844C43.9657 73.545 44.8472 74.4296 45.9041 74.4296C46.961 74.4296 47.8425 73.545 47.8425 72.4844Z" fill="#FFB800"/>
<path d="M56.8591 72.2047C56.8591 67.7513 56.8591 63.2978 56.8591 58.8443C56.8591 56.4889 56.8591 54.1334 56.8591 51.7788C56.8591 50.7183 55.9775 49.8337 54.9206 49.8337C53.8637 49.8337 52.9822 50.7183 52.9822 51.7788C52.9822 56.2323 52.9822 60.6857 52.9822 65.1392C52.9822 67.4947 52.9822 69.8502 52.9822 72.2047C52.9822 73.2653 53.8637 74.1499 54.9206 74.1499C55.9775 74.1499 56.8591 73.2653 56.8591 72.2047Z" fill="#FFB800"/>
<path d="M65.8747 72.0185C65.8747 67.4826 65.8747 62.9477 65.8747 58.4118C65.8747 56.5741 65.8747 54.7354 65.8747 52.8977C65.8747 51.8372 64.9931 50.9526 63.9362 50.9526C62.8793 50.9526 61.9978 51.8372 61.9978 52.8977C61.9978 57.4336 61.9978 61.9686 61.9978 66.5045C61.9978 68.3422 61.9978 70.1808 61.9978 72.0185C61.9978 73.0791 62.8793 73.9637 63.9362 73.9637C64.9931 73.9637 65.8747 73.0782 65.8747 72.0185Z" fill="#FFB800"/>
<path d="M74.8912 71.8315C74.8912 67.2233 74.8912 62.6161 74.8912 58.0079C74.8912 56.7084 74.8912 55.4089 74.8912 54.1102C74.8912 53.0497 74.0096 52.1651 72.9527 52.1651C71.8958 52.1651 71.0143 53.0497 71.0143 54.1102C71.0143 58.7184 71.0143 63.3256 71.0143 67.9338C71.0143 69.2333 71.0143 70.5328 71.0143 71.8315C71.0143 72.892 71.8958 73.7766 72.9527 73.7766C74.0096 73.7766 74.8912 72.892 74.8912 71.8315Z" fill="#FFB800"/>
<path d="M20.9804 63.81C20.9804 62.5614 20.9804 61.3128 20.9804 60.0652C20.9804 59.0046 20.0989 58.12 19.0419 58.12C17.985 58.12 17.1035 59.0046 17.1035 60.0652C17.1035 61.3138 17.1035 62.5624 17.1035 63.81C17.1035 64.8706 17.985 65.7552 19.0419 65.7552C20.0989 65.7552 20.9804 64.8706 20.9804 63.81Z" fill="#FFB800"/>
<path d="M10.198 63.81C10.198 62.5614 10.198 61.3128 10.198 60.0652C10.198 59.0046 9.31652 58.12 8.25961 58.12C7.2027 58.12 6.32117 59.0046 6.32117 60.0652C6.32117 61.3138 6.32117 62.5624 6.32117 63.81C6.32117 64.8706 7.2027 65.7552 8.25961 65.7552C9.31652 65.7552 10.198 64.8706 10.198 63.81Z" fill="#FFB800"/>
<path d="M44.0672 1.947C44.0672 2.28323 44.0672 2.61946 44.0672 2.95477C44.0672 3.08444 44.0672 3.21505 44.0672 3.34472C44.0672 3.48274 43.9971 4.06813 44.0857 3.45865C44.0617 3.62168 44.0201 3.78192 43.9758 3.94031C43.9527 4.01811 43.9269 4.09592 43.8992 4.17187C44.0211 3.89585 44.0395 3.85324 43.9537 4.0422C43.8863 4.18855 43.8041 4.32563 43.7201 4.46179C43.6767 4.52941 43.6324 4.59517 43.5854 4.65909C43.77 4.42567 43.7958 4.38677 43.6638 4.54423C43.5604 4.66557 43.4441 4.77487 43.3269 4.88139C43.17 5.01384 43.2078 4.98698 43.4414 4.80266C43.3768 4.8499 43.3112 4.89528 43.2448 4.93789C43.1118 5.02681 42.9697 5.10091 42.8266 5.17223C42.6374 5.25838 42.6808 5.24078 42.9558 5.11758C42.8792 5.14537 42.8026 5.17131 42.7251 5.19446C42.5681 5.24448 42.4066 5.27598 42.2451 5.30469C42.8072 5.20373 42.3946 5.27783 42.2598 5.28431C42.1445 5.28987 41.5159 5.23707 42.0475 5.30932C41.8537 5.28246 41.6645 5.23059 41.4771 5.17501C41.274 5.10091 41.2934 5.11573 41.5352 5.21762C41.4475 5.17872 41.3617 5.13611 41.2777 5.09072C41.1088 5.00365 40.9519 4.89528 40.7977 4.78413C41.214 5.08331 40.7414 4.69614 40.6629 4.61463C40.5245 4.45253 40.5346 4.47476 40.6943 4.68039C40.638 4.60444 40.5836 4.5257 40.5328 4.44512C40.4276 4.2858 40.3436 4.11352 40.2623 3.94031C40.482 4.41085 40.2559 3.82916 40.2272 3.71708C40.2051 3.62075 40.1857 3.52442 40.1709 3.42716C40.206 3.69763 40.2152 3.71986 40.1968 3.4957C40.1876 3.34287 40.194 3.18726 40.194 3.0335C40.194 2.67041 40.194 2.30824 40.194 1.94515C39.5479 2.59353 38.9017 3.24191 38.2556 3.89029C40.8392 3.89029 43.4229 3.89029 46.0066 3.89029C47.0635 3.89029 47.945 3.00571 47.945 1.94515C47.945 0.884578 47.0635 0 46.0066 0C43.4229 0 40.8392 0 38.2556 0C37.1987 0 36.3171 0.884578 36.3171 1.94515C36.3171 2.35455 36.3171 2.76396 36.3171 3.17337C36.3171 4.20059 36.5442 5.10925 36.9753 6.03458C37.9353 8.09551 40.4119 9.39783 42.6365 9.14404C44.634 8.91617 46.4921 7.76947 47.3524 5.89379C47.9422 4.60814 47.9459 3.32157 47.9459 1.94515C47.9459 0.884578 47.0644 0 46.0075 0C44.9506 0 44.0672 0.886431 44.0672 1.947Z" fill="#FFB800"/>
<path d="M36.8174 15.8909C36.8599 18.1621 38.2122 20.022 40.2799 20.876C42.2026 21.6698 44.4937 21.0687 45.9336 19.6191C47.5241 18.0176 47.8029 15.6065 46.9149 13.591C46.0896 11.7181 44.1152 10.5955 42.1195 10.5584C42.7657 11.2068 43.4118 11.8552 44.058 12.5036C44.058 10.8419 44.058 9.18015 44.058 7.51844C44.058 6.45787 43.1764 5.57329 42.1195 5.57329C41.0626 5.57329 40.1811 6.45787 40.1811 7.51844C40.1811 9.18015 40.1811 10.8419 40.1811 12.5036C40.1811 13.578 41.0635 14.4293 42.1195 14.4487C42.2469 14.4506 42.3725 14.458 42.4998 14.47C41.9045 14.4154 42.4454 14.483 42.5885 14.5228C42.7094 14.5571 43.0906 14.7266 42.5755 14.4978C42.7205 14.5626 42.8571 14.6442 42.9918 14.7284C43.35 14.9526 42.654 14.4376 42.9761 14.709C43.0961 14.8109 43.2041 14.9257 43.3084 15.0434C43.59 15.3574 43.0528 14.6766 43.2891 15.0276C43.3777 15.1592 43.4487 15.3018 43.518 15.4444C43.2789 14.9489 43.4515 15.2999 43.4931 15.4296C43.5355 15.563 43.6232 16.1252 43.5448 15.513C43.5604 15.638 43.5632 15.764 43.5651 15.89C43.5678 16.0354 43.4746 16.6041 43.5752 16.0095C43.554 16.1327 43.5198 16.2531 43.4857 16.3726C43.4617 16.4513 43.4349 16.5291 43.4054 16.606C43.5254 16.3318 43.5392 16.2883 43.4497 16.4754C43.3961 16.5847 43.3297 16.6866 43.2651 16.7894C43.146 16.958 43.1755 16.9237 43.3518 16.6866C43.3001 16.7486 43.2466 16.8088 43.1912 16.8663C43.1091 16.9552 43.0186 17.0339 42.9272 17.1136C43.3527 16.7421 42.9484 17.0811 42.8248 17.1552C42.7205 17.2173 42.3328 17.384 42.8488 17.1701C42.6965 17.233 42.5368 17.2766 42.3771 17.3164C41.946 17.4239 42.8423 17.2803 42.3937 17.3229C42.222 17.3396 42.0494 17.3331 41.8786 17.3229C41.4282 17.297 42.33 17.4081 41.8943 17.3164C41.7328 17.2821 41.5759 17.2275 41.4217 17.1701C41.9312 17.359 41.5592 17.2182 41.4438 17.1552C41.3275 17.0913 40.8909 16.7514 41.3395 17.1136C41.2454 17.0376 41.1595 16.9515 41.0746 16.8663C41.0183 16.8079 40.9648 16.7486 40.9131 16.6866C41.0894 16.9237 41.1171 16.958 40.998 16.7894C40.9288 16.6893 40.8697 16.5819 40.8116 16.4754C40.7211 16.2873 40.7359 16.3309 40.8549 16.606C40.8245 16.5291 40.7977 16.4513 40.7737 16.3726C40.7349 16.254 40.7091 16.1308 40.6832 16.0095C40.8042 16.5856 40.6962 16.0474 40.6925 15.89C40.6722 14.8303 39.8257 13.9448 38.754 13.9448C37.7147 13.9458 36.7981 14.8303 36.8174 15.8909Z" fill="#FFB800"/>
<path d="M2.91781 44.1076C5.24579 42.7663 7.57376 41.426 9.90266 40.0857C14.8863 37.2153 19.8709 34.3457 24.8545 31.4752C29.4938 28.8039 34.1322 26.1326 38.7706 23.4612C40.2189 22.6267 41.6682 21.793 43.1164 20.9585C44.0312 20.4314 44.3423 19.206 43.8115 18.2973C43.2752 17.3776 42.0762 17.0719 41.1595 17.5999C38.8316 18.9411 36.5036 20.2814 34.1747 21.6217C29.1911 24.4922 24.2065 27.3617 19.2229 30.2322C14.5835 32.9035 9.94512 35.5749 5.30671 38.2462C3.85842 39.0807 2.4092 39.9144 0.96091 40.7489C0.0461513 41.276 -0.264922 42.5014 0.265841 43.4101C0.802143 44.3289 2.00121 44.6355 2.91781 44.1076Z" fill="#FFB800"/>
<path d="M40.4645 18.2964C38.0257 21.5291 35.5861 24.7608 33.1473 27.9925C30.5147 31.4808 27.8831 34.9691 25.2505 38.4574C25.2394 38.4713 25.2293 38.4861 25.2182 38.5C24.5785 39.3475 25.0834 40.673 25.9132 41.1611C26.9074 41.7456 27.9292 41.3065 28.5652 40.4636C31.004 37.2319 33.4436 33.9993 35.8824 30.7676C38.5149 27.2793 41.1466 23.791 43.7792 20.3027C43.7903 20.2888 43.8004 20.274 43.8115 20.2601C44.4512 19.4125 43.9463 18.0871 43.1164 17.5989C42.1223 17.0145 41.1005 17.4535 40.4645 18.2964Z" fill="#FFB800"/>
<path d="M41.1595 20.9575C43.3204 22.421 45.4823 23.8845 47.6432 25.348C52.3526 28.5371 57.0621 31.7253 61.7716 34.9144C66.3676 38.0267 70.9644 41.1389 75.5604 44.2511C77.401 45.4979 79.2425 46.7446 81.0831 47.9904C81.96 48.5842 83.2274 48.1627 83.7351 47.293C84.2954 46.3334 83.9132 45.2237 83.04 44.6318C80.8791 43.1683 78.7173 41.7048 76.5564 40.2413C71.8469 37.0522 67.1374 33.864 62.4279 30.6749C57.832 27.5627 53.2351 24.4505 48.6392 21.3382C46.7986 20.0915 44.957 18.8447 43.1164 17.598C42.2395 17.0043 40.9722 17.4257 40.4645 18.2955C39.9042 19.256 40.2854 20.3657 41.1595 20.9575Z" fill="#FFB800"/>
<path d="M40.7672 20.6537C43.026 23.3973 45.2847 26.14 47.5435 28.8835C51.1462 33.2592 54.7499 37.6358 58.3526 42.0114C59.1834 43.021 60.015 44.0307 60.8458 45.0394C61.5196 45.8572 62.8932 45.7359 63.5873 45.0394C64.3867 44.2372 64.2593 43.1053 63.5873 42.2884C61.3286 39.5457 59.0698 36.8021 56.8111 34.0595C53.2083 29.6838 49.6047 25.3073 46.002 20.9316C45.1712 19.922 44.3395 18.9124 43.5088 17.9037C42.8349 17.0858 41.4614 17.2071 40.7672 17.9037C39.9679 18.7058 40.0953 19.8368 40.7672 20.6537Z" fill="#FFB800"/>
</svg>
