<svg width="23" height="23" viewBox="0 0 23 23" fill="none" xmlns="http://www.w3.org/2000/svg">
<path d="M19.8145 0H0C0 1.5 0.00020057 1.43531 0.00020057 3.18569V23C2.5 23 1.43551 23 3.18589 23H23C23 20 23.0002 21.5647 23.0002 19.8143V8.82149e-06C22 0 21.5649 0 19.8145 0ZM8.15697 18.449C8.43703 18.7291 8.43703 19.1842 8.15697 19.4642C8.01694 19.6043 7.84191 19.6743 7.63186 19.6743C7.45682 19.6743 7.24678 19.6043 7.10675 19.4642L5.60142 17.9589L4.1311 19.4992C3.99107 19.6393 3.81603 19.7093 3.60599 19.7093C3.43095 19.7093 3.2209 19.6393 3.08087 19.4992C2.94084 19.3592 2.87082 19.1842 2.87082 18.9741C2.87082 18.7641 2.94084 18.589 3.08087 18.449L4.5862 16.9437L3.08087 15.4734C2.94084 15.3333 2.87082 15.1583 2.87082 14.9482C2.87082 14.7382 2.94084 14.5632 3.08087 14.4231C3.36093 14.1431 3.81603 14.1431 4.09609 14.4231L5.60142 15.9285L7.10675 14.4231C7.38681 14.1431 7.8419 14.1431 8.12197 14.4231C8.40203 14.7032 8.40203 15.1583 8.12197 15.4384L6.61664 16.9437L8.15697 18.449ZM8.64708 6.65145H6.51162V8.78691C6.51162 9.17199 6.19655 9.52207 5.77646 9.52207C5.35637 9.52207 5.0413 9.207 5.0413 8.78691V6.65145H2.90583C2.52075 6.65145 2.17067 6.33638 2.17067 5.91629C2.17067 5.49619 2.48574 5.18113 2.90583 5.18113H5.0413V3.04566C5.0413 2.66058 5.35637 2.3105 5.77646 2.3105C6.19655 2.3105 6.51162 2.62557 6.51162 3.04566V5.21613H8.64708C9.03216 5.21613 9.38224 5.5312 9.38224 5.91629C9.38224 6.30137 9.03216 6.65145 8.64708 6.65145ZM14.7384 5.32116H19.8145C20.2696 5.32116 20.6547 5.70624 20.6547 6.16134C20.6547 6.61644 20.2696 6.96651 19.8145 6.96651H14.7384C14.2833 6.96651 13.8982 6.58143 13.8982 6.12633C13.8982 5.67123 14.2833 5.32116 14.7384 5.32116ZM19.9895 19.5693H14.9134C14.4583 19.5693 14.0733 19.1842 14.0733 18.7291C14.0733 18.274 14.4583 17.8889 14.9134 17.8889H19.9895C20.4446 17.8889 20.8297 18.274 20.8297 18.7291C20.8297 19.1842 20.4446 19.5693 19.9895 19.5693ZM19.9895 16.7686H14.9134C14.4583 16.7686 14.0733 16.3836 14.0733 15.9285C14.0733 15.4734 14.4583 15.0883 14.9134 15.0883H19.9895C20.4446 15.0883 20.8297 15.4734 20.8297 15.9285C20.8297 16.3836 20.4446 16.7686 19.9895 16.7686Z" fill="#1B79E7"/>
</svg>
