<svg width="26" height="16" viewBox="0 0 26 16" fill="none" xmlns="http://www.w3.org/2000/svg">
<path fill-rule="evenodd" clip-rule="evenodd" d="M0 0V16H26V0H0ZM3.99144 5.54777L2.35254 6.36325L2.66554 4.63604L1.33965 3.41282L3.17199 3.16083L3.99144 1.58936L4.81088 3.16083L6.64322 3.41283L5.31733 4.63604L5.63033 6.36325L3.99144 5.54777ZM6.70948 1.92025L6.3644 2.09195L6.4303 1.72827L6.15112 1.47072L6.53694 1.41766L6.70948 1.08677L6.88202 1.41766L7.26783 1.47072L6.98865 1.72827L7.05456 2.09195L6.70948 1.92025ZM8.183 3.08634L7.83792 3.25805L7.90382 2.89437L7.62465 2.63681L8.01046 2.58375L8.183 2.25287L8.35554 2.58375L8.74135 2.63681L8.46218 2.89437L8.52808 3.25805L8.183 3.08634ZM8.35427 4.83812L8.00919 5.00983L8.07509 4.64615L7.79592 4.3886L8.18173 4.33554L8.35427 4.00465L8.52681 4.33554L8.91262 4.3886L8.63344 4.64615L8.69935 5.00983L8.35427 4.83812ZM6.97993 6.36163L6.63484 6.53333L6.70075 6.16966L6.42157 5.9121L6.80738 5.85904L6.97993 5.52816L7.15247 5.85904L7.53828 5.9121L7.2591 6.16966L7.32501 6.53333L6.97993 6.36163Z" fill="#F14747"/>
</svg>
