<svg width="25" height="34" viewBox="0 0 25 34" fill="none" xmlns="http://www.w3.org/2000/svg">
<path d="M4.8514 0C2.16447 0 0 2.465 0 5.525V28.475C0 31.535 2.16447 34 4.8514 34H19.7042C22.3911 34 24.5556 31.535 24.5556 28.475V10.71C24.5556 10.37 24.4436 10.03 24.2197 9.775L15.4498 0.34C15.2259 0.1275 14.9647 0 14.6662 0H4.8514ZM15.823 4.25L20.6371 9.4775H16.5694C16.1589 9.4775 15.823 9.095 15.823 8.6275V4.25ZM16.5694 11.985H22.3538V28.475C22.3538 30.1325 21.1969 31.45 19.7415 31.45H4.8514C3.39598 31.45 2.23911 30.1325 2.23911 28.475V5.525C2.23911 3.8675 3.39598 2.55 4.8514 2.55H13.5839V8.585C13.5839 10.4975 14.8901 11.985 16.5694 11.985Z" fill="#B10BFF"/>
<path d="M19.5176 20.1025H5.00067V22.6525H19.5176V20.1025Z" fill="#B10BFF"/>
<path d="M13.9198 15.0025H5.00067V17.5525H13.9198V15.0025Z" fill="#B10BFF"/>
<path d="M19.5176 25.2025H5.00067V27.7525H19.5176V25.2025Z" fill="#B10BFF"/>
</svg>
