<svg width="26" height="34" viewBox="0 0 26 34" fill="none" xmlns="http://www.w3.org/2000/svg">
<path d="M25.1166 0.433793C24.8747 0.17977 24.5397 0.0351724 24.1973 0.0351724H18.6141C18.2643 0.0351724 17.9367 0.175862 17.6911 0.433793C17.4454 0.691724 17.3077 1.03563 17.3077 1.40299C17.3077 2.15724 17.8921 2.7708 18.6104 2.7708H21.0484L8.16997 16.2966C7.96898 16.5076 7.76054 16.746 7.52978 17.0195L6.55087 18.192V4.67402L8.27419 6.48345C8.76551 6.99931 9.62531 6.99931 10.1166 6.48345C10.3623 6.22552 10.5 5.88161 10.5 5.51425C10.5 5.1508 10.366 4.8069 10.1166 4.54897L6.1526 0.382989C6.13027 0.35954 6.10794 0.343908 6.08561 0.328276L6.04094 0.293103C6.01861 0.277471 5.99628 0.254023 5.97394 0.234483C5.94045 0.207126 5.8995 0.187586 5.86228 0.168046L5.81762 0.144598C5.79901 0.132874 5.77667 0.121149 5.75434 0.109425C5.70223 0.082069 5.65757 0.0742529 5.6129 0.0625287L5.50868 0.0312644C5.4268 0.0117241 5.34863 0 5.27419 0C5.25558 0.00390805 5.23697 0.00390805 5.21836 0.00390805C5.12531 0.00781609 5.05459 0.0117241 4.99504 0.0273563C4.95782 0.0351724 4.92432 0.0468965 4.89082 0.0625287L4.76799 0.101609C4.68983 0.132874 4.62655 0.168046 4.567 0.207126L4.5 0.246207C4.45533 0.281379 4.38089 0.343908 4.31762 0.414253L0.379653 4.54506C-0.126551 5.07655 -0.126551 5.94414 0.379653 6.47954C0.62531 6.73747 0.952853 6.87816 1.29901 6.87816C1.64516 6.87816 1.9727 6.73747 2.22208 6.47563L3.94541 4.67011V32.6322C3.94541 33.3864 4.52978 34 5.24814 34C5.87717 34 6.41315 33.5271 6.52481 32.8784C6.56203 32.7182 6.57692 32.6126 6.57692 32.5149V26.9382C6.57692 23.6476 7.79777 20.5563 10.0087 18.2349L22.8945 4.70529V7.26506C22.8945 8.01931 23.4789 8.63287 24.1973 8.63287C24.9156 8.63287 25.5 8.01931 25.5 7.26506V1.40299C25.5 1.03563 25.366 0.691724 25.1166 0.433793Z" fill="#CCCCCC"/>
</svg>
