<svg width="34" height="34" viewBox="0 0 34 34" fill="none" xmlns="http://www.w3.org/2000/svg">
<path d="M32.9375 31.8934H32.3531V18.2007C32.3531 16.842 31.2446 15.7431 29.874 15.7431H28.776V14.3387C28.776 12.98 27.6675 11.881 26.2969 11.881H24.6677V9.77447C24.6677 7.63982 22.9252 5.91243 20.7719 5.91243H18.0625V1.05328C18.0625 0.470467 17.5879 0 17 0C16.4121 0 15.9375 0.470467 15.9375 1.05328V5.91243H12.626C10.4727 5.91243 8.73021 7.63982 8.73021 9.77447V17.6285H5.18854C3.03521 17.6285 1.29271 19.3558 1.29271 21.4905V31.8934H1.0625C0.474583 31.8934 0 32.3639 0 32.9467C0 33.5295 0.474583 34 1.0625 34H32.9375C33.5254 34 34 33.5295 34 32.9467C34 32.3639 33.5254 31.8934 32.9375 31.8934ZM26.2969 13.9876C26.4917 13.9876 26.651 14.1456 26.651 14.3387V16.7964C26.651 17.3792 27.1256 17.8496 27.7135 17.8496H29.874C30.0687 17.8496 30.2281 18.0076 30.2281 18.2007V31.8934H24.6677V29.9624H27.2C27.7879 29.9624 28.2625 29.4919 28.2625 28.9091C28.2625 28.3263 27.7879 27.8558 27.2 27.8558H24.6677V26.4515H27.2C27.7879 26.4515 28.2625 25.981 28.2625 25.3982C28.2625 24.8154 27.7879 24.3449 27.2 24.3449H24.6677V22.9405H27.2C27.7879 22.9405 28.2625 22.4701 28.2625 21.8872C28.2625 21.3044 27.7879 20.834 27.2 20.834H24.6677V13.9876H26.2969ZM10.8552 9.77447C10.8552 8.80545 11.6485 8.019 12.626 8.019H20.7719C21.7494 8.019 22.5427 8.80545 22.5427 9.77447V31.8934H10.8552V9.77447ZM3.41771 21.494C3.41771 20.525 4.21104 19.7385 5.18854 19.7385H8.73021V31.8934H3.41771V21.494Z" fill="#CCCCCC"/>
<path d="M5.47904 23.1582H6.77883C7.36675 23.1582 7.84133 22.6877 7.84133 22.1049C7.84133 21.5221 7.36675 21.0516 6.77883 21.0516H5.47904C4.89113 21.0516 4.41654 21.5221 4.41654 22.1049C4.41654 22.6877 4.89113 23.1582 5.47904 23.1582Z" fill="#CCCCCC"/>
<path d="M5.47904 24.5626C4.89113 24.5626 4.41654 25.033 4.41654 25.6159C4.41654 26.1987 4.89113 26.6691 5.47904 26.6691H6.77883C7.36675 26.6691 7.84133 26.1987 7.84133 25.6159C7.84133 25.033 7.36675 24.5626 6.77883 24.5626H5.47904Z" fill="#CCCCCC"/>
<path d="M5.47904 28.0735C4.89113 28.0735 4.41654 28.544 4.41654 29.1268C4.41654 29.7096 4.89113 30.1801 5.47904 30.1801H6.77883C7.36675 30.1801 7.84133 29.7096 7.84133 29.1268C7.84133 28.544 7.36675 28.0735 6.77883 28.0735H5.47904Z" fill="#CCCCCC"/>
<path d="M13.2105 15.0971C13.7984 15.0971 14.273 14.6266 14.273 14.0438V11.8213C14.273 11.2385 13.7984 10.7681 13.2105 10.7681C12.6225 10.7681 12.148 11.2385 12.148 11.8213V14.0438C12.148 14.6266 12.6225 15.0971 13.2105 15.0971Z" fill="#CCCCCC"/>
<path d="M16.7521 15.0971C17.3401 15.0971 17.8146 14.6266 17.8146 14.0438V11.8213C17.8146 11.2385 17.3401 10.7681 16.7521 10.7681C16.1642 10.7681 15.6896 11.2385 15.6896 11.8213V14.0438C15.6896 14.6266 16.1642 15.0971 16.7521 15.0971Z" fill="#CCCCCC"/>
<path d="M20.2938 15.0971C20.8817 15.0971 21.3563 14.6266 21.3563 14.0438V11.8213C21.3563 11.2385 20.8817 10.7681 20.2938 10.7681C19.7059 10.7681 19.2313 11.2385 19.2313 11.8213V14.0438C19.2313 14.6266 19.7059 15.0971 20.2938 15.0971Z" fill="#CCCCCC"/>
<path d="M13.2105 22.119C13.7984 22.119 14.273 21.6485 14.273 21.0657V18.8432C14.273 18.2604 13.7984 17.79 13.2105 17.79C12.6225 17.79 12.148 18.2604 12.148 18.8432V21.0657C12.148 21.6485 12.6225 22.119 13.2105 22.119Z" fill="#CCCCCC"/>
<path d="M16.7521 22.119C17.3401 22.119 17.8146 21.6485 17.8146 21.0657V18.8432C17.8146 18.2604 17.3401 17.79 16.7521 17.79C16.1642 17.79 15.6896 18.2604 15.6896 18.8432V21.0657C15.6896 21.6485 16.1642 22.119 16.7521 22.119Z" fill="#CCCCCC"/>
<path d="M20.2938 22.119C20.8817 22.119 21.3563 21.6485 21.3563 21.0657V18.8432C21.3563 18.2604 20.8817 17.79 20.2938 17.79C19.7059 17.79 19.2313 18.2604 19.2313 18.8432V21.0657C19.2313 21.6485 19.7059 22.119 20.2938 22.119Z" fill="#CCCCCC"/>
<path d="M13.2105 29.1409C13.7984 29.1409 14.273 28.6704 14.273 28.0876V25.8651C14.273 25.2823 13.7984 24.8119 13.2105 24.8119C12.6225 24.8119 12.148 25.2823 12.148 25.8651V28.0876C12.148 28.6704 12.6225 29.1409 13.2105 29.1409Z" fill="#CCCCCC"/>
<path d="M16.7521 29.1409C17.3401 29.1409 17.8146 28.6704 17.8146 28.0876V25.8651C17.8146 25.2823 17.3401 24.8119 16.7521 24.8119C16.1642 24.8119 15.6896 25.2823 15.6896 25.8651V28.0876C15.6896 28.6704 16.1642 29.1409 16.7521 29.1409Z" fill="#CCCCCC"/>
<path d="M20.2938 29.1409C20.8817 29.1409 21.3563 28.6704 21.3563 28.0876V25.8651C21.3563 25.2823 20.8817 24.8119 20.2938 24.8119C19.7059 24.8119 19.2313 25.2823 19.2313 25.8651V28.0876C19.2313 28.6704 19.7059 29.1409 20.2938 29.1409Z" fill="#CCCCCC"/>
</svg>
