<svg width="84" height="114" viewBox="0 0 84 114" fill="none" xmlns="http://www.w3.org/2000/svg">
<path fill-rule="evenodd" clip-rule="evenodd" d="M72.64 59.0319C73.8853 58.7698 75.1549 58.6359 76.4211 58.6359C80.2525 58.6359 83.3684 61.9249 83.3684 65.9693C83.3684 70.0136 80.2525 73.3026 76.4211 73.3026H76.1275C70.4029 73.3026 64.7703 71.9276 59.631 69.3353L60.0096 70.5361C60.5272 72.1714 60.7895 73.8764 60.7895 75.6053C60.7895 79.4113 59.5216 82.9074 57.4131 85.6611C59.2923 88.2571 62.1911 89.8026 65.3139 89.8026C69.5223 89.8026 72.9474 93.4161 72.9474 97.8601V111.401L69.9409 112.193C66.3178 113.15 62.5836 113.636 58.8442 113.636C52.998 113.636 47.2821 112.474 41.8544 110.182L41.6842 110.11L41.514 110.182C36.0864 112.474 30.3704 113.636 24.5242 113.636C20.7848 113.636 17.0506 113.15 13.4258 112.195L10.4211 111.401V97.8601C10.4211 93.4161 13.8461 89.8026 18.0545 89.8026C21.1773 89.8026 24.0744 88.2571 25.9536 85.6593C23.8468 82.9074 22.5789 79.4113 22.5789 75.6053C22.5789 73.8764 22.8412 72.1714 23.3605 70.5361L23.7392 69.3353C18.5981 71.9258 12.9673 73.3026 7.24089 73.3026H6.94737C3.11589 73.3026 0 70.0136 0 65.9693C0 61.9249 3.11589 58.6359 6.94737 58.6359C8.21353 58.6359 9.48316 58.7698 10.7267 59.0319L16.1908 60.1851C18.2004 60.6104 20.3002 60.5573 22.2872 60.0311L27.0756 58.7679L27.3101 58.0236C21.5698 56.2196 17.3684 50.6059 17.3684 43.9693C17.3684 37.0411 19.9945 30.7564 24.2359 26.1346L21.6219 22.4569C20.4166 20.7593 18.7718 19.5071 16.863 18.8361C15.8608 18.4823 14.8135 18.3026 13.7541 18.3026H12.0815C9.25042 18.3026 6.94737 15.8716 6.94737 12.8833C6.94737 8.79493 8.45495 4.95043 11.1957 2.05926C13.3389 -0.201241 16.8543 -0.659574 19.4561 0.984926C24.6423 4.27026 28.809 9.02226 31.5133 14.7294L33.8632 19.6904C36.3208 18.8049 38.9452 18.3026 41.6842 18.3026C44.4232 18.3026 47.0476 18.8049 49.507 19.6923L51.8569 14.7313C54.5594 9.02409 58.7278 4.27209 63.9123 0.986759C66.5176 -0.663241 70.033 -0.203074 72.1745 2.06109C74.9135 4.95043 76.4211 8.79493 76.4211 12.8833C76.4211 15.8716 74.118 18.3026 71.2869 18.3026H69.6144C68.5549 18.3026 67.5076 18.4823 66.5054 18.8361C64.5984 19.5071 62.9518 20.7593 61.7465 22.4569L59.1325 26.1346C63.3739 30.7564 66 37.0411 66 43.9693C66 50.6059 61.7986 56.2196 56.0566 58.0236L56.2911 58.7679L61.0778 60.0311C63.0682 60.5573 65.1681 60.6104 67.1758 60.1851L72.64 59.0319ZM69.7168 4.65343C68.6765 3.55159 66.9657 3.32976 65.6978 4.13093C65.0656 4.53059 64.4559 4.96143 63.8585 5.40876C65.9288 7.09909 68.7216 10.1571 69.3382 14.6598C69.3833 14.6589 69.4277 14.6533 69.4718 14.6478C69.5193 14.6418 69.5666 14.6359 69.6144 14.6359H71.2869C72.2023 14.6359 72.9474 13.8494 72.9474 12.8833C72.9474 9.81976 71.7698 6.81859 69.7168 4.65343ZM65.9079 15.2263C65.3886 11.4459 62.6218 8.93426 61.0674 7.80126C59.8342 9.00393 58.714 10.3258 57.7014 11.7411C59.7804 12.8814 61.3314 14.8284 62.0608 17.1366C63.0873 16.3904 64.2024 15.7799 65.406 15.3564C65.4953 15.3254 65.5871 15.3047 65.6793 15.284C65.7557 15.2668 65.8324 15.2495 65.9079 15.2263ZM55.7544 14.8394C55.48 15.3436 55.2107 15.8496 54.9641 16.3703L52.7114 21.1241C54.0627 21.8538 55.3375 22.7136 56.529 23.6871L58.9675 20.2551C58.9832 20.234 59.0001 20.2148 59.017 20.1955C59.034 20.1763 59.0509 20.157 59.0665 20.1359H59.0526C59.0526 17.8131 57.7396 15.7561 55.7544 14.8394ZM26.8394 23.6853C28.0309 22.7118 29.3057 21.8519 30.657 21.1223L28.4061 16.3666C28.1594 15.8459 27.8902 15.3399 27.6158 14.8376C25.6288 15.7524 24.3158 17.8113 24.3158 20.1341H24.3019C24.3166 20.1539 24.3328 20.1721 24.3489 20.1902C24.3671 20.2106 24.3852 20.2309 24.4009 20.2533L26.8394 23.6853ZM10.4211 12.8833C10.4211 13.8494 11.1662 14.6359 12.0815 14.6359H13.7541C13.8021 14.6359 13.8496 14.6419 13.8971 14.6479C13.9408 14.6534 13.9844 14.6589 14.0285 14.6598C14.6451 10.1571 17.4379 7.09909 19.5082 5.41059C18.9107 4.96143 18.2994 4.53243 17.6672 4.13093C16.4027 3.32976 14.6919 3.55159 13.6498 4.65343C11.5986 6.81859 10.4211 9.81976 10.4211 12.8833ZM17.686 15.2829C17.7787 15.3035 17.8716 15.3241 17.9624 15.3564C19.1643 15.7799 20.2811 16.3904 21.3076 17.1366C22.0371 14.8284 23.5881 12.8814 25.6671 11.7411C24.6545 10.3258 23.5342 9.00393 22.3011 7.80126C20.7466 8.93426 17.9798 11.4459 17.4605 15.2263C17.5347 15.2493 17.6102 15.2661 17.686 15.2829ZM41.6842 21.9693C30.1915 21.9693 20.8421 31.8381 20.8421 43.9693C20.8421 50.0358 25.5159 54.9693 31.2632 54.9693H52.1053C57.8525 54.9693 62.5263 50.0358 62.5263 43.9693C62.5263 31.8381 53.1769 21.9693 41.6842 21.9693ZM52.3824 58.6224C52.2907 58.6292 52.1988 58.6359 52.1053 58.6359H31.2632C31.1696 58.6359 31.0778 58.6292 30.986 58.6224C30.9193 58.6175 30.8527 58.6126 30.7855 58.6103L26.6536 71.6966C26.2541 72.9579 26.0526 74.2724 26.0526 75.6053C26.0526 79.0574 27.4022 82.1778 29.5715 84.4236C29.7816 77.3231 30.9575 70.3143 33.0903 63.5566L33.4863 62.3026H49.8838L50.2798 63.5566C52.4127 70.3143 53.5868 77.3231 53.7987 84.4236C55.9663 82.1778 57.3158 79.0556 57.3158 75.6053C57.3158 74.2724 57.1143 72.9579 56.7148 71.6984L52.5829 58.6103C52.5157 58.6126 52.4491 58.6175 52.3824 58.6224ZM33 86.8894C34.4572 87.5769 36.0673 87.9693 37.7642 87.9693H45.6043C47.3012 87.9693 48.9112 87.5769 50.3684 86.8894V86.7318C50.3684 79.6771 49.3593 72.6976 47.3689 65.9693H36.0013C34.0091 72.6994 33 79.6771 33 86.7318V86.8894ZM7.24089 69.6359C13.5074 69.6359 19.6628 67.8484 25.047 64.4678L25.3631 64.1946L25.7747 62.8929L23.1313 63.5896C20.6493 64.2423 18.0197 64.3101 15.51 63.7803L10.0459 62.6271C9.02637 62.4126 7.98426 62.3026 6.94737 62.3026C5.03163 62.3026 3.47368 63.9471 3.47368 65.9693C3.47368 67.9914 5.03163 69.6359 6.94737 69.6359H7.24089ZM13.8947 108.537L14.2699 108.636C22.7544 110.877 31.7964 110.264 39.9474 106.895V103.716C38.9383 104.057 37.9222 104.374 36.8992 104.647L36.0482 101.094C37.3612 100.742 38.6621 100.311 39.9474 99.8401V91.6359H37.7642C34.254 91.6359 31.0269 90.3599 28.4529 88.2388C28.1351 88.6494 27.7982 89.0344 27.4438 89.4011C29.7921 91.1409 31.2632 93.9918 31.2632 97.1359H27.7895C27.7895 94.7746 26.4347 92.6883 24.3922 91.7954C23.6662 92.2061 22.8951 92.5196 22.1065 92.7836C23.4873 94.4648 24.3158 96.6318 24.3158 98.9693H20.8421C20.8421 96.5419 19.4127 94.3988 17.2712 93.5536C15.3502 93.9404 13.893 95.7224 13.893 97.8601V101.422C20.0293 102.86 26.4816 103.017 32.6943 101.853L33.3022 105.463C30.3357 106.02 27.3014 106.303 24.2863 106.303C20.7917 106.303 17.3042 105.905 13.8947 105.16V108.537ZM43.4211 106.882C51.5773 110.255 60.6175 110.879 69.0968 108.636L69.4737 108.539V105.162C66.0643 105.905 62.5784 106.303 59.0822 106.303C53.7223 106.303 48.4666 105.434 43.4211 103.721V106.882ZM69.4737 101.415V97.8601C69.4737 95.7206 68.0165 93.9404 66.0955 93.5518C63.9575 94.3969 62.5263 96.5419 62.5263 98.9693H59.0526C59.0526 96.6318 59.8811 94.4648 61.2619 92.7836C60.4734 92.5196 59.7022 92.2061 58.9762 91.7954C56.9354 92.6864 55.5789 94.7746 55.5789 97.1359H52.1053C52.1053 93.9918 53.5764 91.1409 55.9263 89.4029C55.572 89.0363 55.2333 88.6513 54.9172 88.2406C52.3415 90.3599 49.1144 91.6359 45.6043 91.6359H43.4211V99.8273C51.7353 102.871 60.8485 103.435 69.4737 101.415ZM76.1275 69.6359H76.4211C78.3368 69.6359 79.8947 67.9914 79.8947 65.9693C79.8947 63.9471 78.3368 62.3026 76.4211 62.3026C75.3842 62.3026 74.3421 62.4126 73.3225 62.6253L67.8584 63.7784C65.3452 64.3101 62.7191 64.2423 60.2354 63.5878L57.5937 62.8911L58.0453 64.3193L58.2103 64.3981C63.6205 67.8246 69.8158 69.6359 76.1275 69.6359ZM34.7368 34.8024C34.7368 35.815 33.9592 36.6358 33 36.6358C32.0408 36.6358 31.2632 35.815 31.2632 34.8024C31.2632 33.7899 32.0408 32.9691 33 32.9691C33.9592 32.9691 34.7368 33.7899 34.7368 34.8024ZM52.1053 34.8024C52.1053 35.815 51.3276 36.6358 50.3684 36.6358C49.4092 36.6358 48.6316 35.815 48.6316 34.8024C48.6316 33.7899 49.4092 32.9691 50.3684 32.9691C51.3276 32.9691 52.1053 33.7899 52.1053 34.8024ZM41.6842 51.3025C46.4727 51.3025 50.3684 47.1903 50.3684 42.1358H46.8947C46.8947 45.1681 44.5569 47.6358 41.6842 47.6358C38.8115 47.6358 36.4737 45.1681 36.4737 42.1358H33C33 47.1903 36.8957 51.3025 41.6842 51.3025Z" fill="#AAAAAA"/>
</svg>
