<svg width="64" height="64" viewBox="0 0 64 64" fill="none" xmlns="http://www.w3.org/2000/svg">
<path d="M32.9838 19.15H53.3538C53.6719 19.1513 53.9857 19.0766 54.2692 18.9323C54.5527 18.7879 54.7977 18.578 54.9838 18.32L60.4338 10.74C60.6772 10.4003 60.8081 9.99292 60.8081 9.57502C60.8081 9.15711 60.6772 8.7497 60.4338 8.41002L54.9838 0.830016C54.7977 0.572003 54.5527 0.362108 54.2692 0.217755C53.9857 0.0734016 53.6719 -0.00124442 53.3538 1.56928e-05H30.9838C30.4533 1.56928e-05 29.9446 0.21073 29.5695 0.585802C29.1945 0.960875 28.9838 1.46958 28.9838 2.00002V18L7.78376 14.46C7.42487 14.4001 7.05642 14.4391 6.71809 14.5731C6.37977 14.707 6.08439 14.9307 5.86376 15.22L0.403763 22.42C0.141747 22.7671 0 23.1901 0 23.625C0 24.0599 0.141747 24.4829 0.403763 24.83L5.84376 32C6.15434 32.4064 6.60882 32.6784 7.11376 32.76L28.9838 36.42V60H5.78376C5.25333 60 4.74462 60.2107 4.36955 60.5858C3.99448 60.9609 3.78376 61.4696 3.78376 62C3.78376 62.5304 3.99448 63.0392 4.36955 63.4142C4.74462 63.7893 5.25333 64 5.78376 64H61.5838C62.1142 64 62.6229 63.7893 62.998 63.4142C63.373 63.0392 63.5838 62.5304 63.5838 62C63.5838 61.4696 63.373 60.9609 62.998 60.5858C62.6229 60.2107 62.1142 60 61.5838 60H32.9838V48.88L47.1338 42.22C47.4237 42.0803 47.6771 41.8748 47.8738 41.62L53.3338 34.42C53.5982 34.072 53.7413 33.647 53.7413 33.21C53.7413 32.773 53.5982 32.348 53.3338 32L47.8738 24.81C47.5969 24.4462 47.2037 24.1882 46.7597 24.079C46.3158 23.9698 45.8478 24.0161 45.4338 24.21L32.9838 30.06V19.15ZM32.9838 4.00002H52.3338L56.3338 9.58002L52.3338 15.15H32.9838V4.00002ZM28.9838 32.37L8.55376 29L4.49376 23.65L8.30376 18.65L28.9838 22V32.37ZM45.6638 28.51L49.2238 33.21L44.9838 38.81L32.9838 44.46V34.46L45.6638 28.51Z" fill="#ADADAD"/>
</svg>
