<svg width="27" height="27" viewBox="0 0 27 27" fill="none" xmlns="http://www.w3.org/2000/svg">
<path d="M13.5 27C20.9463 27 27 20.9463 27 13.5C27 6.05368 20.9463 -2.64615e-07 13.5 -5.90104e-07C6.05369 -9.15592e-07 1.64273e-06 6.05368 1.31724e-06 13.5C9.91756e-07 20.9463 6.05368 27 13.5 27ZM5.94 12.7326L10.8568 7.81579C11.0558 7.61684 11.34 7.50316 11.6242 7.50316C11.9084 7.50316 12.1642 7.61684 12.3916 7.81579C12.8179 8.2421 12.8179 8.92421 12.3916 9.3221L9.29369 12.42L20.2926 12.42C20.8895 12.42 21.3726 12.9032 21.3726 13.5C21.3726 14.0968 20.8895 14.58 20.2926 14.58L9.29369 14.58L12.3916 17.6779C12.8179 18.1042 12.8179 18.7863 12.3916 19.1842C11.9653 19.6105 11.2832 19.6105 10.8853 19.1842L5.94 14.2674C5.74105 14.0684 5.62737 13.7842 5.62737 13.5C5.62737 13.2158 5.74105 12.9316 5.94 12.7326Z" fill="#CCCCCC"/>
</svg>
